<svg width="100" height="74" viewBox="0 0 100 74" fill="none" xmlns="http://www.w3.org/2000/svg">
<path d="M80.957 23.659H74.6612L76.5581 1.61124C76.5616 1.5713 76.5622 1.53195 76.5624 1.4926C76.5624 1.48924 76.5628 1.48608 76.5628 1.48272C76.5628 1.48212 76.5628 1.48173 76.5628 1.48114C76.5628 0.88105 76.2052 0.352144 75.6796 0.122193C75.6751 0.120216 75.6708 0.117843 75.6663 0.115866C75.6337 0.102026 75.5999 0.0901617 75.5659 0.0786938C75.5532 0.0745417 75.5411 0.0694007 75.5284 0.0654462C75.5007 0.0569442 75.4722 0.0502217 75.4439 0.0433015C75.4239 0.0385561 75.4048 0.0328226 75.3847 0.0288681C75.3599 0.0239251 75.3341 0.020762 75.3087 0.0170053C75.2849 0.0134463 75.2614 0.00929355 75.2374 0.00711861C75.2333 0.00672316 75.2296 0.00593163 75.2255 0.00553619C75.1997 0.00316353 75.1743 0.00355909 75.1487 0.00257048C75.1316 0.00197732 75.1147 0 75.0976 0H75.0792C75.0776 0 75.0761 0 75.0747 0H45.1193C44.3107 0 43.6545 0.664346 43.6545 1.48291C43.6545 2.29951 44.3107 2.96583 45.1193 2.96583H73.5009L70.5856 36.8504C70.5852 36.853 70.5852 36.8556 70.5849 36.8581L69.8493 45.4078H18.9489L19.8003 36.5107H29.4919C30.3011 36.5107 30.9568 35.8468 30.9568 35.0278C30.9568 34.2089 30.3011 33.5449 29.4919 33.5449H20.0843L21.8819 14.7623H37.3068C38.116 14.7623 38.7716 14.0984 38.7716 13.2794C38.7716 12.4604 38.116 11.7965 37.3068 11.7965H22.1659L23.0112 2.96583H39.2599C40.0666 2.96583 40.7248 2.29951 40.7248 1.48291C40.7248 0.664346 40.0666 0 39.2599 0H21.6817C21.6809 0 21.6804 0.000197613 21.6796 0.000197613C20.9915 -1.08621e-07 20.3946 0.490352 20.2503 1.17012C20.2493 1.17506 20.2475 1.17981 20.2466 1.18475C20.2391 1.22172 20.2343 1.25949 20.2294 1.29745C20.228 1.30951 20.2255 1.32098 20.2243 1.33304C20.2241 1.33541 20.2235 1.33759 20.2233 1.33996L19.2225 11.7965H1.46485C0.655667 11.7965 0 12.4604 0 13.2794C0 14.0984 0.655667 14.7623 1.46485 14.7623H18.9386L17.1409 33.5449H11.9145C11.1053 33.5449 10.4497 34.2089 10.4497 35.0278C10.4497 35.8468 11.1053 36.5107 11.9145 36.5107H16.8571L15.8782 46.7371C15.878 46.7387 15.878 46.7403 15.8778 46.7417L14.3643 62.5553C14.3641 62.557 14.3639 62.559 14.3637 62.5606L14.3631 62.5663C14.3612 62.5869 14.3614 62.6071 14.3602 62.6276C14.3588 62.6549 14.3561 62.6816 14.3561 62.7093C14.3561 62.7105 14.3563 62.7117 14.3563 62.713C14.3563 62.7512 14.359 62.7888 14.3618 62.8263C14.3629 62.8384 14.3626 62.8507 14.3639 62.8625C14.3678 62.9009 14.3743 62.9386 14.3811 62.9762C14.3831 62.9873 14.384 62.9986 14.3862 63.0094C14.3919 63.0379 14.3999 63.0654 14.4073 63.0933C14.4124 63.1128 14.4165 63.1328 14.4223 63.152C14.4241 63.1573 14.4264 63.1625 14.428 63.168C14.4989 63.3887 14.6192 63.5868 14.7762 63.7485C14.7792 63.7515 14.7815 63.7548 14.7844 63.7576C14.8001 63.7734 14.8171 63.7877 14.8335 63.8027C14.9344 63.8964 15.0485 63.9759 15.1733 64.0382C15.1993 64.0512 15.2249 64.0649 15.2514 64.0761C15.2594 64.0797 15.268 64.0821 15.2762 64.0852C15.313 64.1001 15.3499 64.1143 15.388 64.1264C15.3915 64.1273 15.3948 64.1279 15.3983 64.1291C15.4417 64.1422 15.4854 64.1536 15.5301 64.1629C15.536 64.1641 15.5421 64.1645 15.5477 64.1657C15.5903 64.1738 15.6331 64.1807 15.6766 64.1851C15.6776 64.1851 15.6784 64.1853 15.6794 64.1855C15.7274 64.1902 15.7751 64.1926 15.8223 64.1926C15.8229 64.1926 15.8237 64.1924 15.8245 64.1924H22.3456C23.0657 69.7193 27.7464 74 33.3997 74C39.0527 74 43.7334 69.7193 44.4535 64.1924H67.9495C68.6698 69.7193 73.3503 74 79.0034 74C84.6564 74 89.3375 69.7193 90.0578 64.1924H96.5805C96.5814 64.1924 96.5826 64.1926 96.5836 64.1926C96.6324 64.1926 96.6805 64.1896 96.7281 64.1849C96.7367 64.1841 96.7449 64.1823 96.7535 64.1813C96.7916 64.1768 96.8295 64.1714 96.8666 64.1639C96.8826 64.1608 96.898 64.1564 96.9139 64.1527C96.9426 64.1459 96.9715 64.1388 96.9996 64.1303C97.0187 64.1246 97.0373 64.1179 97.056 64.1113C97.0801 64.103 97.1041 64.0943 97.1277 64.0846C97.148 64.0765 97.1674 64.0676 97.1871 64.0587C97.2086 64.0487 97.2301 64.0384 97.251 64.0275C97.2709 64.0172 97.29 64.0065 97.3092 63.9955C97.3293 63.9836 97.3492 63.9713 97.3689 63.9587C97.3873 63.9468 97.4057 63.9348 97.4232 63.9221C97.4432 63.9081 97.4621 63.8932 97.4814 63.8782C97.4975 63.8654 97.5137 63.8527 97.5293 63.8393C97.5494 63.8221 97.5684 63.8041 97.5875 63.7857C97.6008 63.7728 97.6146 63.7602 97.6275 63.7467C97.6479 63.7258 97.6672 63.7036 97.6865 63.6813C97.6969 63.6692 97.7076 63.6576 97.7176 63.6453C97.7391 63.6184 97.7586 63.5907 97.7781 63.5629C97.7848 63.5532 97.7922 63.5441 97.7986 63.5342C97.8225 63.498 97.8449 63.4608 97.8656 63.4225C97.8672 63.4201 97.8688 63.4179 97.8697 63.4154C97.8918 63.3742 97.9121 63.3321 97.9303 63.2886C97.9353 63.2762 97.9393 63.2633 97.9441 63.2509C97.956 63.2202 97.9678 63.1896 97.9777 63.1577C97.9842 63.1372 97.9889 63.116 97.9945 63.0952C98.001 63.0705 98.0078 63.046 98.0133 63.0209C98.0182 62.9986 98.0213 62.9756 98.025 62.9529C98.0283 62.9329 98.0326 62.9133 98.0351 62.893C98.0973 62.3892 99.2443 53.0727 99.7566 47.0485C99.7572 47.0428 99.7574 47.0369 99.758 47.0311C99.9055 45.2945 100 43.8322 100 42.9369C100 32.3072 91.4574 23.659 80.957 23.659ZM74.406 26.6252H80.3988L79.6333 35.5219H73.6405L74.406 26.6252ZM33.4001 71.034C28.8655 71.034 25.1765 67.2994 25.1765 62.7091C25.1765 58.1188 28.8657 54.3842 33.4001 54.3842C37.9345 54.3842 41.6236 58.1188 41.6236 62.7091C41.6236 67.2994 37.9345 71.034 33.4001 71.034ZM79.0034 71.034C74.469 71.034 70.7802 67.2994 70.7802 62.7091C70.7802 58.1188 74.4692 54.3842 79.0034 54.3842C83.538 54.3842 87.2271 58.1188 87.2271 62.7091C87.2271 67.2994 83.538 71.034 79.0034 71.034ZM95.2861 61.2256H90.0582C89.3382 55.6983 84.6574 51.4174 79.0038 51.4174C73.3507 51.4174 68.6698 55.6985 67.9499 61.2256H44.4541C43.7342 55.6983 39.0535 51.4174 33.4001 51.4174C27.7468 51.4174 23.0657 55.6985 22.3458 61.2256H17.4348L18.6651 48.3729H71.1917V48.3737C71.1925 48.3737 71.1931 48.3737 71.1938 48.3737C71.2429 48.3737 71.2915 48.3709 71.3395 48.3659C71.3485 48.3652 71.3573 48.3632 71.3663 48.362C71.4046 48.3574 71.4427 48.3519 71.4802 48.3444C71.4964 48.341 71.5122 48.3365 71.5282 48.3325C71.5575 48.3254 71.5868 48.3185 71.6153 48.3098C71.6349 48.3039 71.6534 48.2967 71.6724 48.29C71.697 48.2813 71.7216 48.2728 71.7454 48.2629C71.7659 48.2544 71.7856 48.2449 71.8056 48.2355C71.8272 48.2254 71.8489 48.2153 71.8698 48.2042C71.8897 48.1935 71.9093 48.1821 71.929 48.1706C71.9491 48.1587 71.969 48.1467 71.9886 48.134C72.0075 48.1216 72.0255 48.1085 72.0436 48.0955C72.063 48.0816 72.0817 48.0674 72.1005 48.0526C72.1173 48.0389 72.1339 48.0249 72.1503 48.0104C72.1688 47.9942 72.187 47.9776 72.2046 47.9604C72.2194 47.946 72.2343 47.9312 72.2487 47.9159C72.2663 47.8973 72.2833 47.8782 72.3001 47.8586C72.3132 47.8432 72.3261 47.8277 72.3386 47.8119C72.3548 47.7912 72.3702 47.7698 72.3854 47.7483C72.397 47.7321 72.4081 47.7158 72.419 47.6992C72.4333 47.6769 72.447 47.6539 72.4601 47.6306C72.47 47.6132 72.4802 47.5958 72.4892 47.578C72.5015 47.5547 72.512 47.531 72.5231 47.507C72.5317 47.4879 72.5405 47.4691 72.5483 47.4493C72.5579 47.426 72.5659 47.4021 72.5743 47.3781C72.5815 47.357 72.5891 47.3358 72.5956 47.3141C72.602 47.2911 72.6073 47.2676 72.6132 47.2443C72.6188 47.2207 72.6251 47.1974 72.6296 47.1735C72.6341 47.1502 72.6368 47.1264 72.6403 47.1027C72.6438 47.0782 72.6479 47.0541 72.6503 47.0291C72.6507 47.0256 72.6515 47.0222 72.6517 47.0187L73.3858 38.487H80.9566C85.4447 38.487 87.4689 40.841 89.6117 43.3335C91.3799 45.39 93.3539 47.6846 96.7094 48.2444C96.2832 52.8058 95.5943 58.6615 95.2861 61.2256ZM96.9598 45.2726C94.783 44.8234 93.4437 43.2742 91.8213 41.3872C89.7922 39.0273 87.315 36.1475 82.5663 35.6109L83.3242 26.8028C91.0906 27.9656 97.0703 34.7569 97.0703 42.9373C97.0703 43.4931 97.0293 44.3006 96.9598 45.2726Z" fill="#1BABEA"/>
<path d="M80.957 23.659H74.6612L76.5581 1.61124C76.5616 1.5713 76.5622 1.53195 76.5624 1.4926C76.5624 1.48924 76.5628 1.48608 76.5628 1.48272C76.5628 1.48212 76.5628 1.48173 76.5628 1.48114C76.5628 0.88105 76.2052 0.352144 75.6796 0.122193C75.6751 0.120216 75.6708 0.117843 75.6663 0.115866C75.6337 0.102026 75.5999 0.0901617 75.5659 0.0786938C75.5532 0.0745417 75.5411 0.0694007 75.5284 0.0654462C75.5007 0.0569442 75.4722 0.0502217 75.4439 0.0433015C75.4239 0.0385561 75.4048 0.0328226 75.3847 0.0288681C75.3599 0.0239251 75.3341 0.020762 75.3087 0.0170053C75.2849 0.0134463 75.2614 0.00929355 75.2374 0.00711861C75.2333 0.00672316 75.2296 0.00593163 75.2255 0.00553619C75.1997 0.00316353 75.1743 0.00355909 75.1487 0.00257048C75.1316 0.00197732 75.1147 0 75.0976 0H75.0792C75.0776 0 75.0761 0 75.0747 0H45.1193C44.3107 0 43.6545 0.664346 43.6545 1.48291C43.6545 2.29951 44.3107 2.96583 45.1193 2.96583H73.5009L70.5856 36.8504C70.5852 36.853 70.5852 36.8556 70.5849 36.8581L69.8493 45.4078H18.9489L19.8003 36.5107H29.4919C30.3011 36.5107 30.9568 35.8468 30.9568 35.0278C30.9568 34.2089 30.3011 33.5449 29.4919 33.5449H20.0843L21.8819 14.7623H37.3068C38.116 14.7623 38.7716 14.0984 38.7716 13.2794C38.7716 12.4604 38.116 11.7965 37.3068 11.7965H22.1659L23.0112 2.96583H39.2599C40.0666 2.96583 40.7248 2.29951 40.7248 1.48291C40.7248 0.664346 40.0666 0 39.2599 0H21.6817C21.6809 0 21.6804 0.000197613 21.6796 0.000197613C20.9915 -1.08621e-07 20.3946 0.490352 20.2503 1.17012C20.2493 1.17506 20.2475 1.17981 20.2466 1.18475C20.2391 1.22172 20.2343 1.25949 20.2294 1.29745C20.228 1.30951 20.2255 1.32098 20.2243 1.33304C20.2241 1.33541 20.2235 1.33759 20.2233 1.33996L19.2225 11.7965H1.46485C0.655667 11.7965 0 12.4604 0 13.2794C0 14.0984 0.655667 14.7623 1.46485 14.7623H18.9386L17.1409 33.5449H11.9145C11.1053 33.5449 10.4497 34.2089 10.4497 35.0278C10.4497 35.8468 11.1053 36.5107 11.9145 36.5107H16.8571L15.8782 46.7371C15.878 46.7387 15.878 46.7403 15.8778 46.7417L14.3643 62.5553C14.3641 62.557 14.3639 62.559 14.3637 62.5606L14.3631 62.5663C14.3612 62.5869 14.3614 62.6071 14.3602 62.6276C14.3588 62.6549 14.3561 62.6816 14.3561 62.7093C14.3561 62.7105 14.3563 62.7117 14.3563 62.713C14.3563 62.7512 14.359 62.7888 14.3618 62.8263C14.3629 62.8384 14.3626 62.8507 14.3639 62.8625C14.3678 62.9009 14.3743 62.9386 14.3811 62.9762C14.3831 62.9873 14.384 62.9986 14.3862 63.0094C14.3919 63.0379 14.3999 63.0654 14.4073 63.0933C14.4124 63.1128 14.4165 63.1328 14.4223 63.152C14.4241 63.1573 14.4264 63.1625 14.428 63.168C14.4989 63.3887 14.6192 63.5868 14.7762 63.7485C14.7792 63.7515 14.7815 63.7548 14.7844 63.7576C14.8001 63.7734 14.8171 63.7877 14.8335 63.8027C14.9344 63.8964 15.0485 63.9759 15.1733 64.0382C15.1993 64.0512 15.2249 64.0649 15.2514 64.0761C15.2594 64.0797 15.268 64.0821 15.2762 64.0852C15.313 64.1001 15.3499 64.1143 15.388 64.1264C15.3915 64.1273 15.3948 64.1279 15.3983 64.1291C15.4417 64.1422 15.4854 64.1536 15.5301 64.1629C15.536 64.1641 15.5421 64.1645 15.5477 64.1657C15.5903 64.1738 15.6331 64.1807 15.6766 64.1851C15.6776 64.1851 15.6784 64.1853 15.6794 64.1855C15.7274 64.1902 15.7751 64.1926 15.8223 64.1926C15.8229 64.1926 15.8237 64.1924 15.8245 64.1924H22.3456C23.0657 69.7193 27.7464 74 33.3997 74C39.0527 74 43.7334 69.7193 44.4535 64.1924H67.9495C68.6698 69.7193 73.3503 74 79.0034 74C84.6564 74 89.3375 69.7193 90.0578 64.1924H96.5805C96.5814 64.1924 96.5826 64.1926 96.5836 64.1926C96.6324 64.1926 96.6805 64.1896 96.7281 64.1849C96.7367 64.1841 96.7449 64.1823 96.7535 64.1813C96.7916 64.1768 96.8295 64.1714 96.8666 64.1639C96.8826 64.1608 96.898 64.1564 96.9139 64.1527C96.9426 64.1459 96.9715 64.1388 96.9996 64.1303C97.0187 64.1246 97.0373 64.1179 97.056 64.1113C97.0801 64.103 97.1041 64.0943 97.1277 64.0846C97.148 64.0765 97.1674 64.0676 97.1871 64.0587C97.2086 64.0487 97.2301 64.0384 97.251 64.0275C97.2709 64.0172 97.29 64.0065 97.3092 63.9955C97.3293 63.9836 97.3492 63.9713 97.3689 63.9587C97.3873 63.9468 97.4057 63.9348 97.4232 63.9221C97.4432 63.9081 97.4621 63.8932 97.4814 63.8782C97.4975 63.8654 97.5137 63.8527 97.5293 63.8393C97.5494 63.8221 97.5684 63.8041 97.5875 63.7857C97.6008 63.7728 97.6146 63.7602 97.6275 63.7467C97.6479 63.7258 97.6672 63.7036 97.6865 63.6813C97.6969 63.6692 97.7076 63.6576 97.7176 63.6453C97.7391 63.6184 97.7586 63.5907 97.7781 63.5629C97.7848 63.5532 97.7922 63.5441 97.7986 63.5342C97.8225 63.498 97.8449 63.4608 97.8656 63.4225C97.8672 63.4201 97.8688 63.4179 97.8697 63.4154C97.8918 63.3742 97.9121 63.3321 97.9303 63.2886C97.9353 63.2762 97.9393 63.2633 97.9441 63.2509C97.956 63.2202 97.9678 63.1896 97.9777 63.1577C97.9842 63.1372 97.9889 63.116 97.9945 63.0952C98.001 63.0705 98.0078 63.046 98.0133 63.0209C98.0182 62.9986 98.0213 62.9756 98.025 62.9529C98.0283 62.9329 98.0326 62.9133 98.0351 62.893C98.0973 62.3892 99.2443 53.0727 99.7566 47.0485C99.7572 47.0428 99.7574 47.0369 99.758 47.0311C99.9055 45.2945 100 43.8322 100 42.9369C100 32.3072 91.4574 23.659 80.957 23.659ZM74.406 26.6252H80.3988L79.6333 35.5219H73.6405L74.406 26.6252ZM33.4001 71.034C28.8655 71.034 25.1765 67.2994 25.1765 62.7091C25.1765 58.1188 28.8657 54.3842 33.4001 54.3842C37.9345 54.3842 41.6236 58.1188 41.6236 62.7091C41.6236 67.2994 37.9345 71.034 33.4001 71.034ZM79.0034 71.034C74.469 71.034 70.7802 67.2994 70.7802 62.7091C70.7802 58.1188 74.4692 54.3842 79.0034 54.3842C83.538 54.3842 87.2271 58.1188 87.2271 62.7091C87.2271 67.2994 83.538 71.034 79.0034 71.034ZM95.2861 61.2256H90.0582C89.3382 55.6983 84.6574 51.4174 79.0038 51.4174C73.3507 51.4174 68.6698 55.6985 67.9499 61.2256H44.4541C43.7342 55.6983 39.0535 51.4174 33.4001 51.4174C27.7468 51.4174 23.0657 55.6985 22.3458 61.2256H17.4348L18.6651 48.3729H71.1917V48.3737C71.1925 48.3737 71.1931 48.3737 71.1938 48.3737C71.2429 48.3737 71.2915 48.3709 71.3395 48.3659C71.3485 48.3652 71.3573 48.3632 71.3663 48.362C71.4046 48.3574 71.4427 48.3519 71.4802 48.3444C71.4964 48.341 71.5122 48.3365 71.5282 48.3325C71.5575 48.3254 71.5868 48.3185 71.6153 48.3098C71.6349 48.3039 71.6534 48.2967 71.6724 48.29C71.697 48.2813 71.7216 48.2728 71.7454 48.2629C71.7659 48.2544 71.7856 48.2449 71.8056 48.2355C71.8272 48.2254 71.8489 48.2153 71.8698 48.2042C71.8897 48.1935 71.9093 48.1821 71.929 48.1706C71.9491 48.1587 71.969 48.1467 71.9886 48.134C72.0075 48.1216 72.0255 48.1085 72.0436 48.0955C72.063 48.0816 72.0817 48.0674 72.1005 48.0526C72.1173 48.0389 72.1339 48.0249 72.1503 48.0104C72.1688 47.9942 72.187 47.9776 72.2046 47.9604C72.2194 47.946 72.2343 47.9312 72.2487 47.9159C72.2663 47.8973 72.2833 47.8782 72.3001 47.8586C72.3132 47.8432 72.3261 47.8277 72.3386 47.8119C72.3548 47.7912 72.3702 47.7698 72.3854 47.7483C72.397 47.7321 72.4081 47.7158 72.419 47.6992C72.4333 47.6769 72.447 47.6539 72.4601 47.6306C72.47 47.6132 72.4802 47.5958 72.4892 47.578C72.5015 47.5547 72.512 47.531 72.5231 47.507C72.5317 47.4879 72.5405 47.4691 72.5483 47.4493C72.5579 47.426 72.5659 47.4021 72.5743 47.3781C72.5815 47.357 72.5891 47.3358 72.5956 47.3141C72.602 47.2911 72.6073 47.2676 72.6132 47.2443C72.6188 47.2207 72.6251 47.1974 72.6296 47.1735C72.6341 47.1502 72.6368 47.1264 72.6403 47.1027C72.6438 47.0782 72.6479 47.0541 72.6503 47.0291C72.6507 47.0256 72.6515 47.0222 72.6517 47.0187L73.3858 38.487H80.9566C85.4447 38.487 87.4689 40.841 89.6117 43.3335C91.3799 45.39 93.3539 47.6846 96.7094 48.2444C96.2832 52.8058 95.5943 58.6615 95.2861 61.2256ZM96.9598 45.2726C94.783 44.8234 93.4437 43.2742 91.8213 41.3872C89.7922 39.0273 87.315 36.1475 82.5663 35.6109L83.3242 26.8028C91.0906 27.9656 97.0703 34.7569 97.0703 42.9373C97.0703 43.4931 97.0293 44.3006 96.9598 45.2726Z" fill="url(#paint0_linear)" fill-opacity="0.1"/>
<path d="M33.4001 57.2715C30.4386 57.2715 28.029 59.7106 28.029 62.7089C28.029 65.7071 30.4386 68.1462 33.4001 68.1462C36.3617 68.1462 38.7712 65.7071 38.7712 62.7089C38.7712 59.7108 36.3617 57.2715 33.4001 57.2715ZM33.4001 65.1804C32.0538 65.1804 30.9587 64.0718 30.9587 62.7089C30.9587 61.346 32.0538 60.2374 33.4001 60.2374C34.7464 60.2374 35.8415 61.346 35.8415 62.7089C35.8415 64.0718 34.7462 65.1804 33.4001 65.1804Z" fill="#1BABEA"/>
<path d="M33.4001 57.2715C30.4386 57.2715 28.029 59.7106 28.029 62.7089C28.029 65.7071 30.4386 68.1462 33.4001 68.1462C36.3617 68.1462 38.7712 65.7071 38.7712 62.7089C38.7712 59.7108 36.3617 57.2715 33.4001 57.2715ZM33.4001 65.1804C32.0538 65.1804 30.9587 64.0718 30.9587 62.7089C30.9587 61.346 32.0538 60.2374 33.4001 60.2374C34.7464 60.2374 35.8415 61.346 35.8415 62.7089C35.8415 64.0718 34.7462 65.1804 33.4001 65.1804Z" fill="url(#paint1_linear)" fill-opacity="0.1"/>
<path d="M79.0034 57.2715C76.0419 57.2715 73.6323 59.7106 73.6323 62.7089C73.6323 65.7071 76.0419 68.1462 79.0034 68.1462C81.965 68.1462 84.3746 65.7071 84.3746 62.7089C84.3746 59.7108 81.965 57.2715 79.0034 57.2715ZM79.0034 65.1804C77.6571 65.1804 76.562 64.0718 76.562 62.7089C76.562 61.346 77.6571 60.2374 79.0034 60.2374C80.3497 60.2374 81.4449 61.346 81.4449 62.7089C81.4449 64.0718 80.3497 65.1804 79.0034 65.1804Z" fill="#1BABEA"/>
<path d="M79.0034 57.2715C76.0419 57.2715 73.6323 59.7106 73.6323 62.7089C73.6323 65.7071 76.0419 68.1462 79.0034 68.1462C81.965 68.1462 84.3746 65.7071 84.3746 62.7089C84.3746 59.7108 81.965 57.2715 79.0034 57.2715ZM79.0034 65.1804C77.6571 65.1804 76.562 64.0718 76.562 62.7089C76.562 61.346 77.6571 60.2374 79.0034 60.2374C80.3497 60.2374 81.4449 61.346 81.4449 62.7089C81.4449 64.0718 80.3497 65.1804 79.0034 65.1804Z" fill="url(#paint2_linear)" fill-opacity="0.1"/>
<path d="M13.8672 23.6594H6.70589C5.8967 23.6594 5.24104 24.3234 5.24104 25.1423C5.24104 25.9613 5.8967 26.6252 6.70589 26.6252H13.8672C14.6764 26.6252 15.3321 25.9613 15.3321 25.1423C15.3321 24.3234 14.6764 23.6594 13.8672 23.6594Z" fill="#1BABEA"/>
<path d="M13.8672 23.6594H6.70589C5.8967 23.6594 5.24104 24.3234 5.24104 25.1423C5.24104 25.9613 5.8967 26.6252 6.70589 26.6252H13.8672C14.6764 26.6252 15.3321 25.9613 15.3321 25.1423C15.3321 24.3234 14.6764 23.6594 13.8672 23.6594Z" fill="url(#paint3_linear)" fill-opacity="0.1"/>
<defs>
<linearGradient id="paint0_linear" x1="49.8208" y1="0" x2="49.8208" y2="74" gradientUnits="userSpaceOnUse">
<stop stop-color="white"/>
<stop offset="1" stop-color="white" stop-opacity="0"/>
</linearGradient>
<linearGradient id="paint1_linear" x1="49.8208" y1="0" x2="49.8208" y2="74" gradientUnits="userSpaceOnUse">
<stop stop-color="white"/>
<stop offset="1" stop-color="white" stop-opacity="0"/>
</linearGradient>
<linearGradient id="paint2_linear" x1="49.8208" y1="0" x2="49.8208" y2="74" gradientUnits="userSpaceOnUse">
<stop stop-color="white"/>
<stop offset="1" stop-color="white" stop-opacity="0"/>
</linearGradient>
<linearGradient id="paint3_linear" x1="49.8208" y1="0" x2="49.8208" y2="74" gradientUnits="userSpaceOnUse">
<stop stop-color="white"/>
<stop offset="1" stop-color="white" stop-opacity="0"/>
</linearGradient>
</defs>
</svg>
