<svg width="34" height="34" viewBox="0 0 34 34" fill="none" xmlns="http://www.w3.org/2000/svg">
<g clip-path="url(#clip0)">
<path d="M18.8783 17.0019L33.611 2.26915C34.1297 1.75045 34.1297 0.909486 33.611 0.390855C33.0923 -0.127777 32.2513 -0.127843 31.7327 0.390855L17 15.1236L2.26732 0.390855C1.74862 -0.127843 0.907655 -0.127843 0.389024 0.390855C-0.129608 0.909553 -0.129675 1.75052 0.389024 2.26915L15.1217 17.0018L0.389024 31.7345C-0.129675 32.2532 -0.129675 33.0942 0.389024 33.6128C0.64834 33.8722 0.988272 34.0018 1.32821 34.0018C1.66814 34.0018 2.00801 33.8722 2.26739 33.6128L17 18.8802L31.7326 33.6128C31.992 33.8722 32.3319 34.0018 32.6718 34.0018C33.0118 34.0018 33.3516 33.8722 33.611 33.6128C34.1297 33.0941 34.1297 32.2532 33.611 31.7345L18.8783 17.0019Z" fill="#632316"/>
</g>
<defs>
<clipPath id="clip0">
<rect width="34" height="34" fill="white"/>
</clipPath>
</defs>
</svg>
