<svg width="42" height="43" viewBox="0 0 42 43" fill="none" xmlns="http://www.w3.org/2000/svg">
<path d="M42 21.0234C42 9.42422 32.5992 0.0234375 21 0.0234375C9.40078 0.0234375 0 9.42422 0 21.0234C0 32.6227 9.40078 42.0234 21 42.0234C21.123 42.0234 21.2461 42.0234 21.3691 42.0152V25.6746H16.8574V20.4164H21.3691V16.5445C21.3691 12.0574 24.109 9.61289 28.1121 9.61289C30.0316 9.61289 31.6805 9.75234 32.1562 9.81797V14.5102H29.4C27.2262 14.5102 26.7996 15.5437 26.7996 17.0613V20.4082H32.0086L31.3277 25.6664H26.7996V41.2113C35.577 38.693 42 30.6129 42 21.0234Z" fill="white"/>
</svg>
