<svg width="38" height="32" viewBox="0 0 38 32" fill="none" xmlns="http://www.w3.org/2000/svg">
<path fill-rule="evenodd" clip-rule="evenodd" d="M18.9999 9.64315L17.2652 6.61895C16.7207 5.6698 15.8239 4.42003 14.5253 3.46204L15.614 1.98628L14.5253 3.46204C13.2013 2.48527 11.7265 2 10.0938 2C5.50765 2 2 5.52952 2 10.4435C2 13.0137 3.05213 15.2735 5.24111 17.7931C7.48013 20.3702 10.7253 23.0167 14.871 26.3866L14.871 26.3866L14.8755 26.3903C16.1243 27.4055 17.531 28.5491 19 29.7687C20.4699 28.5483 21.8774 27.4041 23.1274 26.388L23.1299 26.3859L23.1299 26.3859C27.2751 23.0163 30.5201 20.37 32.759 17.793C34.9479 15.2735 36 13.0137 36 10.4435C36 5.52952 32.4924 2 27.9062 2C26.2735 2 24.7987 2.48527 23.4747 3.46204C22.1761 4.42002 21.2793 5.66984 20.7348 6.619L18.9999 9.64315ZM24.3915 27.9378C32.5863 21.2764 38 16.8756 38 10.4435C38 4.4897 33.6606 0 27.9062 0C25.8442 0 23.9537 0.623292 22.2874 1.8526C21.4684 2.45681 20.7897 3.14579 20.2383 3.8209C19.7142 4.46264 19.3052 5.09185 19 5.62379C18.6948 5.09182 18.2858 4.46262 17.7617 3.8209C17.2104 3.14579 16.5317 2.45681 15.7126 1.8526C14.0463 0.623292 12.1558 0 10.0938 0C4.33942 0 0 4.4897 0 10.4435C0 16.8756 5.41374 21.2764 13.6094 27.9385L13.6105 27.9394C15.002 29.0706 16.5791 30.3527 18.2183 31.7201C18.4345 31.9006 18.712 32 19 32C19.288 32 19.5655 31.9006 19.7817 31.7201C21.4215 30.3522 22.9989 29.0699 24.3915 27.9378Z" fill="#E1A986"/>
</svg>
