<svg width="38" height="32" viewBox="0 0 38 32" fill="none" xmlns="http://www.w3.org/2000/svg">
<path d="M27.9062 0C25.8442 0 23.9537 0.623292 22.2874 1.8526C20.6898 3.03115 19.6262 4.53225 19 5.62379C18.3738 4.53218 17.3102 3.03115 15.7126 1.8526C14.0463 0.623292 12.1558 0 10.0938 0C4.33942 0 0 4.4897 0 10.4435C0 16.8756 5.41374 21.2764 13.6094 27.9385C15.0012 29.0699 16.5787 30.3524 18.2183 31.7201C18.4345 31.9006 18.712 32 19 32C19.288 32 19.5655 31.9006 19.7817 31.7201C21.4215 30.3522 22.9989 29.0699 24.3915 27.9378C32.5863 21.2764 38 16.8756 38 10.4435C38 4.4897 33.6606 0 27.9062 0Z" fill="#E1A986"/>
</svg>
