<svg width="83" height="100" viewBox="0 0 83 100" fill="none" xmlns="http://www.w3.org/2000/svg">
<path d="M59.4358 57.3785C58.4364 57.1873 55.7254 56.6681 54.4885 56.4314C52.9958 56.1457 51.9124 54.841 51.9124 53.3291V51.4804C52.9933 50.8217 54.0353 50.056 55.0355 49.1816C58.5846 46.0783 60.777 41.6772 61.2198 36.7756C63.8121 36.6869 65.8885 34.5381 65.8775 31.9188L65.862 28.1999C65.8571 27.0471 65.4404 25.9434 64.7014 25.0774V20.5194C64.7014 19.7003 64.0338 19.0362 63.2103 19.0362C62.3869 19.0362 61.7193 19.7003 61.7193 20.5194V23.6962C48.1339 19.897 34.8645 19.8968 21.2807 23.6962V16.0052C21.2807 11.0257 24.6716 6.70071 29.5266 5.48743L37.8046 3.41908C40.2222 2.81518 42.7778 2.81518 45.1952 3.41908L53.4732 5.48743C57.5318 6.50149 60.6851 9.79171 61.5066 13.8696C61.6684 14.6728 62.4544 15.1933 63.2616 15.0325C64.0689 14.8716 64.5924 14.0899 64.4306 13.2868C63.3841 8.0925 59.3682 3.90189 54.1996 2.61049L45.9217 0.542137C43.0289 -0.180712 39.9709 -0.180712 37.0779 0.542137L28.8 2.61049C22.6169 4.15541 18.2984 9.66359 18.2984 16.0052V25.0776C17.5594 25.9436 17.1427 27.0473 17.1378 28.2001L17.1223 31.919C17.1113 34.5381 19.1877 36.6869 21.78 36.7758C22.2228 41.6775 24.4152 46.0785 27.9643 49.1818C28.9643 50.0562 30.0065 50.8217 31.0874 51.4806V53.3293C31.0874 54.7107 30.2347 55.9972 28.5251 56.4277L23.5642 57.3789C9.8754 59.9994 0 71.9687 0 85.7602V91.7963C0 96.3197 3.69954 100 8.2471 100H74.7529C79.3003 100 83 96.3199 83 91.7963V85.7602C83 71.9146 73.0722 59.989 59.4358 57.3785ZM59.9408 60.5199C61.5502 60.8978 63.0962 61.4222 64.5669 62.0757V78.763C63.5871 78.1028 62.4063 77.7167 61.1365 77.7167H59.941L59.9408 60.5199ZM60.3022 26.3809C58.7629 27.8889 56.9687 30.2579 53.3302 29.6327C49.3497 28.9499 45.4253 28.6084 41.5 28.6084C37.5756 28.6084 33.6505 28.9499 29.6708 29.6325C26.059 30.2526 24.2485 27.902 22.6917 26.3825C35.3192 22.9591 47.6731 22.9585 60.3022 26.3809ZM29.9335 46.9535C26.9317 44.3289 25.0873 40.5752 24.7395 36.3836C24.6184 34.9239 23.4144 33.8182 21.9391 33.8119C20.9232 33.8076 20.1003 32.9639 20.1046 31.9311L20.1201 28.2122C20.1203 28.1555 20.1246 28.0995 20.1299 28.0436C22.4148 30.2428 24.9781 33.4479 30.1773 32.5559C37.7967 31.2489 45.2043 31.2489 52.8233 32.5561C58.2133 33.4805 60.9567 29.8772 62.8697 28.0358C62.8754 28.0942 62.8797 28.153 62.8799 28.2122L62.8954 31.9311C62.8997 32.9639 62.0768 33.8075 61.0611 33.8119C59.5858 33.8182 58.3818 34.9239 58.2607 36.3838C57.9129 40.5752 56.0685 44.3291 53.0667 46.9537C46.1997 52.9578 36.8698 53.0187 29.9335 46.9535ZM51.7993 58.505L49.2796 60.5187C44.9973 63.9409 38.7987 63.9189 34.5411 60.4658L31.6996 58.1613C34.3524 56.1152 34.0471 53.0824 34.0697 52.9814C38.9265 54.9484 44.015 54.972 48.9303 52.9814C48.9476 53.049 48.6356 56.5105 51.7993 58.505ZM26.4232 59.8521L28.5606 59.4429L32.6566 62.765C38.0005 67.0991 45.7146 67.1732 51.1472 62.8312L55.2039 59.5894L56.9585 59.9253V77.7169H26.4232V59.8521ZM14.4803 86.8856C13.571 87.9772 13.0703 89.3592 13.0703 90.777V97.0332H8.2471C5.34413 97.0332 2.98229 94.6838 2.98229 91.7961V86.8276H14.5286L14.4803 86.8856ZM15.8329 83.861H3.05317C3.68678 75.254 8.59091 67.6616 15.8327 63.4113V67.7005C15.8327 68.5196 16.5003 69.1837 17.3238 69.1837C18.1472 69.1837 18.8148 68.5196 18.8148 67.7005V61.9097C20.2874 61.2833 21.8336 60.7861 23.4409 60.4337V77.7169H22.2277C20.9654 77.7169 19.791 78.0985 18.8148 78.7516V74.6345C18.8148 73.8153 18.1472 73.1513 17.3238 73.1513C16.5003 73.1513 15.8327 73.8153 15.8327 74.6345L15.8329 83.861ZM66.9478 97.0332H16.0522V90.777C16.0522 89.1762 17.1553 88.4506 17.6682 87.7077C18.5849 86.6069 19.0781 85.2122 19.0781 83.8163C19.0781 82.0887 20.491 80.6833 22.2277 80.6833H61.1361C62.8728 80.6833 64.2857 82.0887 64.2857 83.8163C64.3024 83.9276 64.1279 85.7479 65.462 87.569C66.022 88.4663 66.9474 89.1493 66.9474 90.6168V97.0332H66.9478ZM67.549 83.861V63.6398C74.5811 67.9304 79.3244 75.4061 79.9468 83.861H67.549ZM80.0177 91.7959C80.0177 94.6836 77.6559 97.033 74.7529 97.033H69.9299V90.6168C69.9299 89.3172 69.523 88.075 68.7536 87.0245L68.6092 86.8276H80.0177V91.7959Z" fill="#1BABEA"/>
<path d="M59.4358 57.3785C58.4364 57.1873 55.7254 56.6681 54.4885 56.4314C52.9958 56.1457 51.9124 54.841 51.9124 53.3291V51.4804C52.9933 50.8217 54.0353 50.056 55.0355 49.1816C58.5846 46.0783 60.777 41.6772 61.2198 36.7756C63.8121 36.6869 65.8885 34.5381 65.8775 31.9188L65.862 28.1999C65.8571 27.0471 65.4404 25.9434 64.7014 25.0774V20.5194C64.7014 19.7003 64.0338 19.0362 63.2103 19.0362C62.3869 19.0362 61.7193 19.7003 61.7193 20.5194V23.6962C48.1339 19.897 34.8645 19.8968 21.2807 23.6962V16.0052C21.2807 11.0257 24.6716 6.70071 29.5266 5.48743L37.8046 3.41908C40.2222 2.81518 42.7778 2.81518 45.1952 3.41908L53.4732 5.48743C57.5318 6.50149 60.6851 9.79171 61.5066 13.8696C61.6684 14.6728 62.4544 15.1933 63.2616 15.0325C64.0689 14.8716 64.5924 14.0899 64.4306 13.2868C63.3841 8.0925 59.3682 3.90189 54.1996 2.61049L45.9217 0.542137C43.0289 -0.180712 39.9709 -0.180712 37.0779 0.542137L28.8 2.61049C22.6169 4.15541 18.2984 9.66359 18.2984 16.0052V25.0776C17.5594 25.9436 17.1427 27.0473 17.1378 28.2001L17.1223 31.919C17.1113 34.5381 19.1877 36.6869 21.78 36.7758C22.2228 41.6775 24.4152 46.0785 27.9643 49.1818C28.9643 50.0562 30.0065 50.8217 31.0874 51.4806V53.3293C31.0874 54.7107 30.2347 55.9972 28.5251 56.4277L23.5642 57.3789C9.8754 59.9994 0 71.9687 0 85.7602V91.7963C0 96.3197 3.69954 100 8.2471 100H74.7529C79.3003 100 83 96.3199 83 91.7963V85.7602C83 71.9146 73.0722 59.989 59.4358 57.3785ZM59.9408 60.5199C61.5502 60.8978 63.0962 61.4222 64.5669 62.0757V78.763C63.5871 78.1028 62.4063 77.7167 61.1365 77.7167H59.941L59.9408 60.5199ZM60.3022 26.3809C58.7629 27.8889 56.9687 30.2579 53.3302 29.6327C49.3497 28.9499 45.4253 28.6084 41.5 28.6084C37.5756 28.6084 33.6505 28.9499 29.6708 29.6325C26.059 30.2526 24.2485 27.902 22.6917 26.3825C35.3192 22.9591 47.6731 22.9585 60.3022 26.3809ZM29.9335 46.9535C26.9317 44.3289 25.0873 40.5752 24.7395 36.3836C24.6184 34.9239 23.4144 33.8182 21.9391 33.8119C20.9232 33.8076 20.1003 32.9639 20.1046 31.9311L20.1201 28.2122C20.1203 28.1555 20.1246 28.0995 20.1299 28.0436C22.4148 30.2428 24.9781 33.4479 30.1773 32.5559C37.7967 31.2489 45.2043 31.2489 52.8233 32.5561C58.2133 33.4805 60.9567 29.8772 62.8697 28.0358C62.8754 28.0942 62.8797 28.153 62.8799 28.2122L62.8954 31.9311C62.8997 32.9639 62.0768 33.8075 61.0611 33.8119C59.5858 33.8182 58.3818 34.9239 58.2607 36.3838C57.9129 40.5752 56.0685 44.3291 53.0667 46.9537C46.1997 52.9578 36.8698 53.0187 29.9335 46.9535ZM51.7993 58.505L49.2796 60.5187C44.9973 63.9409 38.7987 63.9189 34.5411 60.4658L31.6996 58.1613C34.3524 56.1152 34.0471 53.0824 34.0697 52.9814C38.9265 54.9484 44.015 54.972 48.9303 52.9814C48.9476 53.049 48.6356 56.5105 51.7993 58.505ZM26.4232 59.8521L28.5606 59.4429L32.6566 62.765C38.0005 67.0991 45.7146 67.1732 51.1472 62.8312L55.2039 59.5894L56.9585 59.9253V77.7169H26.4232V59.8521ZM14.4803 86.8856C13.571 87.9772 13.0703 89.3592 13.0703 90.777V97.0332H8.2471C5.34413 97.0332 2.98229 94.6838 2.98229 91.7961V86.8276H14.5286L14.4803 86.8856ZM15.8329 83.861H3.05317C3.68678 75.254 8.59091 67.6616 15.8327 63.4113V67.7005C15.8327 68.5196 16.5003 69.1837 17.3238 69.1837C18.1472 69.1837 18.8148 68.5196 18.8148 67.7005V61.9097C20.2874 61.2833 21.8336 60.7861 23.4409 60.4337V77.7169H22.2277C20.9654 77.7169 19.791 78.0985 18.8148 78.7516V74.6345C18.8148 73.8153 18.1472 73.1513 17.3238 73.1513C16.5003 73.1513 15.8327 73.8153 15.8327 74.6345L15.8329 83.861ZM66.9478 97.0332H16.0522V90.777C16.0522 89.1762 17.1553 88.4506 17.6682 87.7077C18.5849 86.6069 19.0781 85.2122 19.0781 83.8163C19.0781 82.0887 20.491 80.6833 22.2277 80.6833H61.1361C62.8728 80.6833 64.2857 82.0887 64.2857 83.8163C64.3024 83.9276 64.1279 85.7479 65.462 87.569C66.022 88.4663 66.9474 89.1493 66.9474 90.6168V97.0332H66.9478ZM67.549 83.861V63.6398C74.5811 67.9304 79.3244 75.4061 79.9468 83.861H67.549ZM80.0177 91.7959C80.0177 94.6836 77.6559 97.033 74.7529 97.033H69.9299V90.6168C69.9299 89.3172 69.523 88.075 68.7536 87.0245L68.6092 86.8276H80.0177V91.7959Z" fill="url(#paint0_linear)" fill-opacity="0.1"/>
<path d="M35.9644 8.09719C34.0289 8.09719 32.4542 9.66359 32.4542 11.589V14.164C32.4542 16.0893 34.0289 17.6558 35.9644 17.6558H47.0356C48.9711 17.6558 50.5458 16.0893 50.5458 14.164V11.589C50.5458 9.66359 48.9711 8.09719 47.0356 8.09719H35.9644ZM47.5637 11.589V14.164C47.5637 14.4536 47.327 14.6894 47.0356 14.6894H35.9644C35.6732 14.6894 35.4363 14.4538 35.4363 14.164V11.589C35.4363 11.2993 35.6731 11.0636 35.9644 11.0636H47.0356C47.3268 11.0636 47.5637 11.2993 47.5637 11.589Z" fill="#1BABEA"/>
<path d="M35.9644 8.09719C34.0289 8.09719 32.4542 9.66359 32.4542 11.589V14.164C32.4542 16.0893 34.0289 17.6558 35.9644 17.6558H47.0356C48.9711 17.6558 50.5458 16.0893 50.5458 14.164V11.589C50.5458 9.66359 48.9711 8.09719 47.0356 8.09719H35.9644ZM47.5637 11.589V14.164C47.5637 14.4536 47.327 14.6894 47.0356 14.6894H35.9644C35.6732 14.6894 35.4363 14.4538 35.4363 14.164V11.589C35.4363 11.2993 35.6731 11.0636 35.9644 11.0636H47.0356C47.3268 11.0636 47.5637 11.2993 47.5637 11.589Z" fill="url(#paint1_linear)" fill-opacity="0.1"/>
<defs>
<linearGradient id="paint0_linear" x1="41.3513" y1="0" x2="41.3513" y2="100" gradientUnits="userSpaceOnUse">
<stop stop-color="white"/>
<stop offset="1" stop-color="white" stop-opacity="0"/>
</linearGradient>
<linearGradient id="paint1_linear" x1="41.3513" y1="0" x2="41.3513" y2="100" gradientUnits="userSpaceOnUse">
<stop stop-color="white"/>
<stop offset="1" stop-color="white" stop-opacity="0"/>
</linearGradient>
</defs>
</svg>
