<svg width="42" height="43" viewBox="0 0 42 43" fill="none" xmlns="http://www.w3.org/2000/svg">
<path d="M25.0195 21.0234C25.0195 23.2434 23.22 25.043 21 25.043C18.78 25.043 16.9805 23.2434 16.9805 21.0234C16.9805 18.8035 18.78 17.0039 21 17.0039C23.22 17.0039 25.0195 18.8035 25.0195 21.0234Z" fill="white"/>
<path d="M30.4003 13.9117C30.207 13.3881 29.8988 12.9142 29.4982 12.5252C29.1092 12.1246 28.6356 11.8164 28.1117 11.6232C27.6868 11.4581 27.0485 11.2617 25.8728 11.2082C24.601 11.1502 24.2197 11.1377 21 11.1377C17.78 11.1377 17.3986 11.1499 16.1272 11.2079C14.9515 11.2617 14.3129 11.4581 13.8883 11.6232C13.3644 11.8164 12.8904 12.1246 12.5018 12.5252C12.1012 12.9142 11.793 13.3878 11.5994 13.9117C11.4344 14.3366 11.238 14.9752 11.1844 16.1509C11.1264 17.4224 11.114 17.8037 11.114 21.0238C11.114 24.2435 11.1264 24.6248 11.1844 25.8966C11.238 27.0723 11.4344 27.7106 11.5994 28.1355C11.793 28.6594 12.1009 29.133 12.5014 29.522C12.8904 29.9225 13.364 30.2308 13.888 30.424C14.3129 30.5894 14.9515 30.7858 16.1272 30.8393C17.3986 30.8973 17.7796 30.9095 20.9997 30.9095C24.22 30.9095 24.6014 30.8973 25.8725 30.8393C27.0482 30.7858 27.6868 30.5894 28.1117 30.424C29.1634 30.0184 29.9946 29.1871 30.4003 28.1355C30.5653 27.7106 30.7617 27.0723 30.8156 25.8966C30.8736 24.6248 30.8857 24.2435 30.8857 21.0238C30.8857 17.8037 30.8736 17.4224 30.8156 16.1509C30.762 14.9752 30.5656 14.3366 30.4003 13.9117ZM21 27.2155C17.58 27.2155 14.8076 24.4434 14.8076 21.0234C14.8076 17.6034 17.58 14.8314 21 14.8314C24.4197 14.8314 27.1921 17.6034 27.1921 21.0234C27.1921 24.4434 24.4197 27.2155 21 27.2155ZM27.4369 16.0336C26.6377 16.0336 25.9898 15.3857 25.9898 14.5865C25.9898 13.7874 26.6377 13.1395 27.4369 13.1395C28.2361 13.1395 28.884 13.7874 28.884 14.5865C28.8837 15.3857 28.2361 16.0336 27.4369 16.0336Z" fill="white"/>
<path d="M21 0.0234375C9.40379 0.0234375 0 9.42723 0 21.0234C0 32.6196 9.40379 42.0234 21 42.0234C32.5962 42.0234 42 32.6196 42 21.0234C42 9.42723 32.5962 0.0234375 21 0.0234375ZM32.9859 25.995C32.9275 27.2786 32.7234 28.155 32.4254 28.9221C31.799 30.5419 30.5185 31.8224 28.8987 32.4489C28.1319 32.7469 27.2552 32.9507 25.9719 33.0093C24.686 33.0679 24.2752 33.082 21.0003 33.082C17.7252 33.082 17.3147 33.0679 16.0285 33.0093C14.7451 32.9507 13.8684 32.7469 13.1016 32.4489C12.2967 32.146 11.568 31.6715 10.9656 31.0578C10.3523 30.4557 9.87772 29.7268 9.57491 28.9221C9.2769 28.1553 9.07278 27.2786 9.01447 25.9953C8.95518 24.7091 8.94141 24.2983 8.94141 21.0234C8.94141 17.7486 8.95518 17.3378 9.01414 16.0519C9.07246 14.7682 9.27626 13.8918 9.57426 13.1247C9.87708 12.3201 10.352 11.5911 10.9656 10.989C11.5677 10.3754 12.2967 9.90083 13.1013 9.59802C13.8684 9.30002 14.7448 9.09622 16.0285 9.03758C17.3144 8.97894 17.7252 8.96484 21 8.96484C24.2748 8.96484 24.6856 8.97894 25.9715 9.0379C27.2552 9.09622 28.1316 9.30002 28.8987 9.5977C29.7033 9.90051 30.4323 10.3754 31.0347 10.989C31.648 11.5914 32.1229 12.3201 32.4254 13.1247C32.7237 13.8918 32.9275 14.7682 32.9862 16.0519C33.0448 17.3378 33.0586 17.7486 33.0586 21.0234C33.0586 24.2983 33.0448 24.7091 32.9859 25.995Z" fill="white"/>
</svg>
