<svg width="195" height="110" viewBox="0 0 195 110" fill="none" xmlns="http://www.w3.org/2000/svg">
<path opacity="0.7" d="M53.1383 79.975C54.1483 79.975 54.9483 80.27 55.5383 80.86C56.1383 81.44 56.4383 82.295 56.4383 83.425V88H54.9983V83.59C54.9983 82.82 54.8133 82.24 54.4433 81.85C54.0733 81.46 53.5433 81.265 52.8533 81.265C52.0733 81.265 51.4583 81.495 51.0083 81.955C50.5583 82.405 50.3333 83.055 50.3333 83.905V88H48.8933V76.87H50.3333V81.175C50.6333 80.795 51.0233 80.5 51.5033 80.29C51.9933 80.08 52.5383 79.975 53.1383 79.975ZM67.8322 84.07C67.8322 84.18 67.8222 84.325 67.8022 84.505H61.3522C61.4422 85.205 61.7472 85.77 62.2672 86.2C62.7972 86.62 63.4522 86.83 64.2322 86.83C65.1822 86.83 65.9472 86.51 66.5272 85.87L67.3222 86.8C66.9622 87.22 66.5122 87.54 65.9722 87.76C65.4422 87.98 64.8472 88.09 64.1872 88.09C63.3472 88.09 62.6022 87.92 61.9522 87.58C61.3022 87.23 60.7972 86.745 60.4372 86.125C60.0872 85.505 59.9122 84.805 59.9122 84.025C59.9122 83.255 60.0822 82.56 60.4222 81.94C60.7722 81.32 61.2472 80.84 61.8472 80.5C62.4572 80.15 63.1422 79.975 63.9022 79.975C64.6622 79.975 65.3372 80.15 65.9272 80.5C66.5272 80.84 66.9922 81.32 67.3222 81.94C67.6622 82.56 67.8322 83.27 67.8322 84.07ZM63.9022 81.19C63.2122 81.19 62.6322 81.4 62.1622 81.82C61.7022 82.24 61.4322 82.79 61.3522 83.47H66.4522C66.3722 82.8 66.0972 82.255 65.6272 81.835C65.1672 81.405 64.5922 81.19 63.9022 81.19ZM74.0071 79.975C75.1071 79.975 75.9471 80.245 76.5271 80.785C77.1171 81.325 77.4121 82.13 77.4121 83.2V88H76.0471V86.95C75.8071 87.32 75.4621 87.605 75.0121 87.805C74.5721 87.995 74.0471 88.09 73.4371 88.09C72.5471 88.09 71.8321 87.875 71.2921 87.445C70.7621 87.015 70.4971 86.45 70.4971 85.75C70.4971 85.05 70.7521 84.49 71.2621 84.07C71.7721 83.64 72.5821 83.425 73.6921 83.425H75.9721V83.14C75.9721 82.52 75.7921 82.045 75.4321 81.715C75.0721 81.385 74.5421 81.22 73.8421 81.22C73.3721 81.22 72.9121 81.3 72.4621 81.46C72.0121 81.61 71.6321 81.815 71.3221 82.075L70.7221 80.995C71.1321 80.665 71.6221 80.415 72.1921 80.245C72.7621 80.065 73.3671 79.975 74.0071 79.975ZM73.6771 86.98C74.2271 86.98 74.7021 86.86 75.1021 86.62C75.5021 86.37 75.7921 86.02 75.9721 85.57V84.46H73.7521C72.5321 84.46 71.9221 84.87 71.9221 85.69C71.9221 86.09 72.0771 86.405 72.3871 86.635C72.6971 86.865 73.1271 86.98 73.6771 86.98ZM89.1209 76.87V88H87.7409V86.74C87.4209 87.18 87.0159 87.515 86.5259 87.745C86.0359 87.975 85.4959 88.09 84.9059 88.09C84.1359 88.09 83.4459 87.92 82.8359 87.58C82.2259 87.24 81.7459 86.765 81.3959 86.155C81.0559 85.535 80.8859 84.825 80.8859 84.025C80.8859 83.225 81.0559 82.52 81.3959 81.91C81.7459 81.3 82.2259 80.825 82.8359 80.485C83.4459 80.145 84.1359 79.975 84.9059 79.975C85.4759 79.975 86.0009 80.085 86.4809 80.305C86.9609 80.515 87.3609 80.83 87.6809 81.25V76.87H89.1209ZM85.0259 86.83C85.5259 86.83 85.9809 86.715 86.3909 86.485C86.8009 86.245 87.1209 85.915 87.3509 85.495C87.5809 85.065 87.6959 84.575 87.6959 84.025C87.6959 83.475 87.5809 82.99 87.3509 82.57C87.1209 82.14 86.8009 81.81 86.3909 81.58C85.9809 81.35 85.5259 81.235 85.0259 81.235C84.5159 81.235 84.0559 81.35 83.6459 81.58C83.2459 81.81 82.9259 82.14 82.6859 82.57C82.4559 82.99 82.3409 83.475 82.3409 84.025C82.3409 84.575 82.4559 85.065 82.6859 85.495C82.9259 85.915 83.2459 86.245 83.6459 86.485C84.0559 86.715 84.5159 86.83 85.0259 86.83ZM105.375 80.05L102.405 88H101.025L98.7305 81.97L96.4055 88H95.0255L92.0705 80.05H93.4355L95.7455 86.38L98.1455 80.05H99.3605L101.715 86.41L104.085 80.05H105.375ZM115.302 84.07C115.302 84.18 115.292 84.325 115.272 84.505H108.822C108.912 85.205 109.217 85.77 109.737 86.2C110.267 86.62 110.922 86.83 111.702 86.83C112.652 86.83 113.417 86.51 113.997 85.87L114.792 86.8C114.432 87.22 113.982 87.54 113.442 87.76C112.912 87.98 112.317 88.09 111.657 88.09C110.817 88.09 110.072 87.92 109.422 87.58C108.772 87.23 108.267 86.745 107.907 86.125C107.557 85.505 107.382 84.805 107.382 84.025C107.382 83.255 107.552 82.56 107.892 81.94C108.242 81.32 108.717 80.84 109.317 80.5C109.927 80.15 110.612 79.975 111.372 79.975C112.132 79.975 112.807 80.15 113.397 80.5C113.997 80.84 114.462 81.32 114.792 81.94C115.132 82.56 115.302 83.27 115.302 84.07ZM111.372 81.19C110.682 81.19 110.102 81.4 109.632 81.82C109.172 82.24 108.902 82.79 108.822 83.47H113.922C113.842 82.8 113.567 82.255 113.097 81.835C112.637 81.405 112.062 81.19 111.372 81.19ZM121.477 79.975C122.577 79.975 123.417 80.245 123.997 80.785C124.587 81.325 124.882 82.13 124.882 83.2V88H123.517V86.95C123.277 87.32 122.932 87.605 122.482 87.805C122.042 87.995 121.517 88.09 120.907 88.09C120.017 88.09 119.302 87.875 118.762 87.445C118.232 87.015 117.967 86.45 117.967 85.75C117.967 85.05 118.222 84.49 118.732 84.07C119.242 83.64 120.052 83.425 121.162 83.425H123.442V83.14C123.442 82.52 123.262 82.045 122.902 81.715C122.542 81.385 122.012 81.22 121.312 81.22C120.842 81.22 120.382 81.3 119.932 81.46C119.482 81.61 119.102 81.815 118.792 82.075L118.192 80.995C118.602 80.665 119.092 80.415 119.662 80.245C120.232 80.065 120.837 79.975 121.477 79.975ZM121.147 86.98C121.697 86.98 122.172 86.86 122.572 86.62C122.972 86.37 123.262 86.02 123.442 85.57V84.46H121.222C120.002 84.46 119.392 84.87 119.392 85.69C119.392 86.09 119.547 86.405 119.857 86.635C120.167 86.865 120.597 86.98 121.147 86.98ZM130.427 81.385C130.677 80.925 131.047 80.575 131.537 80.335C132.027 80.095 132.622 79.975 133.322 79.975V81.37C133.242 81.36 133.132 81.355 132.992 81.355C132.212 81.355 131.597 81.59 131.147 82.06C130.707 82.52 130.487 83.18 130.487 84.04V88H129.047V80.05H130.427V81.385ZM150.117 88.165L148.722 86.77C147.792 87.67 146.622 88.12 145.212 88.12C144.512 88.12 143.882 88.005 143.322 87.775C142.762 87.545 142.322 87.225 142.002 86.815C141.692 86.395 141.537 85.92 141.537 85.39C141.537 84.75 141.732 84.185 142.122 83.695C142.522 83.195 143.177 82.685 144.087 82.165C143.627 81.705 143.302 81.29 143.112 80.92C142.922 80.55 142.827 80.165 142.827 79.765C142.827 79.055 143.082 78.485 143.592 78.055C144.112 77.625 144.802 77.41 145.662 77.41C146.462 77.41 147.097 77.605 147.567 77.995C148.037 78.385 148.272 78.92 148.272 79.6C148.272 80.13 148.097 80.605 147.747 81.025C147.407 81.445 146.837 81.885 146.037 82.345L148.632 84.925C148.932 84.355 149.147 83.72 149.277 83.02L150.432 83.395C150.252 84.315 149.947 85.115 149.517 85.795L150.927 87.205L150.117 88.165ZM145.662 78.46C145.192 78.46 144.822 78.58 144.552 78.82C144.292 79.05 144.162 79.355 144.162 79.735C144.162 80.005 144.232 80.265 144.372 80.515C144.522 80.765 144.807 81.105 145.227 81.535C145.917 81.145 146.392 80.81 146.652 80.53C146.922 80.25 147.057 79.945 147.057 79.615C147.057 79.265 146.932 78.985 146.682 78.775C146.442 78.565 146.102 78.46 145.662 78.46ZM145.302 86.92C146.342 86.92 147.197 86.59 147.867 85.93L144.882 82.96C144.162 83.36 143.657 83.735 143.367 84.085C143.087 84.425 142.947 84.81 142.947 85.24C142.947 85.74 143.162 86.145 143.592 86.455C144.032 86.765 144.602 86.92 145.302 86.92ZM46.26 97.975C47.36 97.975 48.2 98.245 48.78 98.785C49.37 99.325 49.665 100.13 49.665 101.2V106H48.3V104.95C48.06 105.32 47.715 105.605 47.265 105.805C46.825 105.995 46.3 106.09 45.69 106.09C44.8 106.09 44.085 105.875 43.545 105.445C43.015 105.015 42.75 104.45 42.75 103.75C42.75 103.05 43.005 102.49 43.515 102.07C44.025 101.64 44.835 101.425 45.945 101.425H48.225V101.14C48.225 100.52 48.045 100.045 47.685 99.715C47.325 99.385 46.795 99.22 46.095 99.22C45.625 99.22 45.165 99.3 44.715 99.46C44.265 99.61 43.885 99.815 43.575 100.075L42.975 98.995C43.385 98.665 43.875 98.415 44.445 98.245C45.015 98.065 45.62 97.975 46.26 97.975ZM45.93 104.98C46.48 104.98 46.955 104.86 47.355 104.62C47.755 104.37 48.045 104.02 48.225 103.57V102.46H46.005C44.785 102.46 44.175 102.87 44.175 103.69C44.175 104.09 44.33 104.405 44.64 104.635C44.95 104.865 45.38 104.98 45.93 104.98ZM57.3388 106.09C56.5288 106.09 55.8038 105.915 55.1638 105.565C54.5338 105.215 54.0388 104.735 53.6788 104.125C53.3188 103.505 53.1388 102.805 53.1388 102.025C53.1388 101.245 53.3188 100.55 53.6788 99.94C54.0388 99.32 54.5338 98.84 55.1638 98.5C55.8038 98.15 56.5288 97.975 57.3388 97.975C58.0588 97.975 58.6988 98.12 59.2588 98.41C59.8288 98.7 60.2688 99.12 60.5788 99.67L59.4838 100.375C59.2338 99.995 58.9238 99.71 58.5538 99.52C58.1838 99.33 57.7738 99.235 57.3238 99.235C56.8038 99.235 56.3338 99.35 55.9138 99.58C55.5038 99.81 55.1788 100.14 54.9388 100.57C54.7088 100.99 54.5938 101.475 54.5938 102.025C54.5938 102.585 54.7088 103.08 54.9388 103.51C55.1788 103.93 55.5038 104.255 55.9138 104.485C56.3338 104.715 56.8038 104.83 57.3238 104.83C57.7738 104.83 58.1838 104.735 58.5538 104.545C58.9238 104.355 59.2338 104.07 59.4838 103.69L60.5788 104.38C60.2688 104.93 59.8288 105.355 59.2588 105.655C58.6988 105.945 58.0588 106.09 57.3388 106.09ZM67.2909 106.09C66.4809 106.09 65.7559 105.915 65.1159 105.565C64.4859 105.215 63.9909 104.735 63.6309 104.125C63.2709 103.505 63.0909 102.805 63.0909 102.025C63.0909 101.245 63.2709 100.55 63.6309 99.94C63.9909 99.32 64.4859 98.84 65.1159 98.5C65.7559 98.15 66.4809 97.975 67.2909 97.975C68.0109 97.975 68.6509 98.12 69.2109 98.41C69.7809 98.7 70.2209 99.12 70.5309 99.67L69.4359 100.375C69.1859 99.995 68.8759 99.71 68.5059 99.52C68.1359 99.33 67.7259 99.235 67.2759 99.235C66.7559 99.235 66.2859 99.35 65.8659 99.58C65.4559 99.81 65.1309 100.14 64.8909 100.57C64.6609 100.99 64.5459 101.475 64.5459 102.025C64.5459 102.585 64.6609 103.08 64.8909 103.51C65.1309 103.93 65.4559 104.255 65.8659 104.485C66.2859 104.715 66.7559 104.83 67.2759 104.83C67.7259 104.83 68.1359 104.735 68.5059 104.545C68.8759 104.355 69.1859 104.07 69.4359 103.69L70.5309 104.38C70.2209 104.93 69.7809 105.355 69.2109 105.655C68.6509 105.945 68.0109 106.09 67.2909 106.09ZM80.9631 102.07C80.9631 102.18 80.9531 102.325 80.9331 102.505H74.4831C74.5731 103.205 74.8781 103.77 75.3981 104.2C75.9281 104.62 76.5831 104.83 77.3631 104.83C78.3131 104.83 79.0781 104.51 79.6581 103.87L80.4531 104.8C80.0931 105.22 79.6431 105.54 79.1031 105.76C78.5731 105.98 77.9781 106.09 77.3181 106.09C76.4781 106.09 75.7331 105.92 75.0831 105.58C74.4331 105.23 73.9281 104.745 73.5681 104.125C73.2181 103.505 73.0431 102.805 73.0431 102.025C73.0431 101.255 73.2131 100.56 73.5531 99.94C73.9031 99.32 74.3781 98.84 74.9781 98.5C75.5881 98.15 76.2731 97.975 77.0331 97.975C77.7931 97.975 78.4681 98.15 79.0581 98.5C79.6581 98.84 80.1231 99.32 80.4531 99.94C80.7931 100.56 80.9631 101.27 80.9631 102.07ZM77.0331 99.19C76.3431 99.19 75.7631 99.4 75.2931 99.82C74.8331 100.24 74.5631 100.79 74.4831 101.47H79.5831C79.5031 100.8 79.2281 100.255 78.7581 99.835C78.2981 99.405 77.7231 99.19 77.0331 99.19ZM86.7427 106.09C86.0927 106.09 85.4677 106.005 84.8677 105.835C84.2677 105.655 83.7977 105.43 83.4577 105.16L84.0577 104.02C84.4077 104.27 84.8327 104.47 85.3327 104.62C85.8327 104.77 86.3377 104.845 86.8477 104.845C88.1077 104.845 88.7377 104.485 88.7377 103.765C88.7377 103.525 88.6527 103.335 88.4827 103.195C88.3127 103.055 88.0977 102.955 87.8377 102.895C87.5877 102.825 87.2277 102.75 86.7577 102.67C86.1177 102.57 85.5927 102.455 85.1827 102.325C84.7827 102.195 84.4377 101.975 84.1477 101.665C83.8577 101.355 83.7127 100.92 83.7127 100.36C83.7127 99.64 84.0127 99.065 84.6127 98.635C85.2127 98.195 86.0177 97.975 87.0277 97.975C87.5577 97.975 88.0877 98.04 88.6177 98.17C89.1477 98.3 89.5827 98.475 89.9227 98.695L89.3077 99.835C88.6577 99.415 87.8927 99.205 87.0127 99.205C86.4027 99.205 85.9377 99.305 85.6177 99.505C85.2977 99.705 85.1377 99.97 85.1377 100.3C85.1377 100.56 85.2277 100.765 85.4077 100.915C85.5877 101.065 85.8077 101.175 86.0677 101.245C86.3377 101.315 86.7127 101.395 87.1927 101.485C87.8327 101.595 88.3477 101.715 88.7377 101.845C89.1377 101.965 89.4777 102.175 89.7577 102.475C90.0377 102.775 90.1777 103.195 90.1777 103.735C90.1777 104.455 89.8677 105.03 89.2477 105.46C88.6377 105.88 87.8027 106.09 86.7427 106.09ZM95.7573 106.09C95.1073 106.09 94.4823 106.005 93.8823 105.835C93.2823 105.655 92.8123 105.43 92.4723 105.16L93.0723 104.02C93.4223 104.27 93.8473 104.47 94.3473 104.62C94.8473 104.77 95.3523 104.845 95.8623 104.845C97.1223 104.845 97.7523 104.485 97.7523 103.765C97.7523 103.525 97.6673 103.335 97.4973 103.195C97.3273 103.055 97.1123 102.955 96.8523 102.895C96.6023 102.825 96.2423 102.75 95.7723 102.67C95.1323 102.57 94.6073 102.455 94.1973 102.325C93.7973 102.195 93.4523 101.975 93.1623 101.665C92.8723 101.355 92.7273 100.92 92.7273 100.36C92.7273 99.64 93.0273 99.065 93.6273 98.635C94.2273 98.195 95.0323 97.975 96.0423 97.975C96.5723 97.975 97.1023 98.04 97.6323 98.17C98.1623 98.3 98.5973 98.475 98.9373 98.695L98.3223 99.835C97.6723 99.415 96.9073 99.205 96.0273 99.205C95.4173 99.205 94.9523 99.305 94.6323 99.505C94.3123 99.705 94.1523 99.97 94.1523 100.3C94.1523 100.56 94.2423 100.765 94.4223 100.915C94.6023 101.065 94.8223 101.175 95.0823 101.245C95.3523 101.315 95.7273 101.395 96.2073 101.485C96.8473 101.595 97.3623 101.715 97.7523 101.845C98.1523 101.965 98.4923 102.175 98.7723 102.475C99.0523 102.775 99.1923 103.195 99.1923 103.735C99.1923 104.455 98.8823 105.03 98.2623 105.46C97.6523 105.88 96.8173 106.09 95.7573 106.09ZM105.897 106.09C105.107 106.09 104.397 105.915 103.767 105.565C103.137 105.215 102.642 104.735 102.282 104.125C101.932 103.505 101.757 102.805 101.757 102.025C101.757 101.245 101.932 100.55 102.282 99.94C102.642 99.32 103.137 98.84 103.767 98.5C104.397 98.15 105.107 97.975 105.897 97.975C106.687 97.975 107.392 98.15 108.012 98.5C108.642 98.84 109.132 99.32 109.482 99.94C109.842 100.55 110.022 101.245 110.022 102.025C110.022 102.805 109.842 103.505 109.482 104.125C109.132 104.735 108.642 105.215 108.012 105.565C107.392 105.915 106.687 106.09 105.897 106.09ZM105.897 104.83C106.407 104.83 106.862 104.715 107.262 104.485C107.672 104.245 107.992 103.915 108.222 103.495C108.452 103.065 108.567 102.575 108.567 102.025C108.567 101.475 108.452 100.99 108.222 100.57C107.992 100.14 107.672 99.81 107.262 99.58C106.862 99.35 106.407 99.235 105.897 99.235C105.387 99.235 104.927 99.35 104.517 99.58C104.117 99.81 103.797 100.14 103.557 100.57C103.327 100.99 103.212 101.475 103.212 102.025C103.212 102.575 103.327 103.065 103.557 103.495C103.797 103.915 104.117 104.245 104.517 104.485C104.927 104.715 105.387 104.83 105.897 104.83ZM114.893 99.385C115.143 98.925 115.513 98.575 116.003 98.335C116.493 98.095 117.088 97.975 117.788 97.975V99.37C117.708 99.36 117.598 99.355 117.458 99.355C116.678 99.355 116.063 99.59 115.613 100.06C115.173 100.52 114.953 101.18 114.953 102.04V106H113.513V98.05H114.893V99.385ZM121.063 98.05H122.503V106H121.063V98.05ZM121.783 96.52C121.503 96.52 121.268 96.43 121.078 96.25C120.898 96.07 120.808 95.85 120.808 95.59C120.808 95.33 120.898 95.11 121.078 94.93C121.268 94.74 121.503 94.645 121.783 94.645C122.063 94.645 122.293 94.735 122.473 94.915C122.663 95.085 122.758 95.3 122.758 95.56C122.758 95.83 122.663 96.06 122.473 96.25C122.293 96.43 122.063 96.52 121.783 96.52ZM133.938 102.07C133.938 102.18 133.928 102.325 133.908 102.505H127.458C127.548 103.205 127.853 103.77 128.373 104.2C128.903 104.62 129.558 104.83 130.338 104.83C131.288 104.83 132.053 104.51 132.633 103.87L133.428 104.8C133.068 105.22 132.618 105.54 132.078 105.76C131.548 105.98 130.953 106.09 130.293 106.09C129.453 106.09 128.708 105.92 128.058 105.58C127.408 105.23 126.903 104.745 126.543 104.125C126.193 103.505 126.018 102.805 126.018 102.025C126.018 101.255 126.188 100.56 126.528 99.94C126.878 99.32 127.353 98.84 127.953 98.5C128.563 98.15 129.248 97.975 130.008 97.975C130.768 97.975 131.443 98.15 132.033 98.5C132.633 98.84 133.098 99.32 133.428 99.94C133.768 100.56 133.938 101.27 133.938 102.07ZM130.008 99.19C129.318 99.19 128.738 99.4 128.268 99.82C127.808 100.24 127.538 100.79 127.458 101.47H132.558C132.478 100.8 132.203 100.255 131.733 99.835C131.273 99.405 130.698 99.19 130.008 99.19ZM139.717 106.09C139.067 106.09 138.442 106.005 137.842 105.835C137.242 105.655 136.772 105.43 136.432 105.16L137.032 104.02C137.382 104.27 137.807 104.47 138.307 104.62C138.807 104.77 139.312 104.845 139.822 104.845C141.082 104.845 141.712 104.485 141.712 103.765C141.712 103.525 141.627 103.335 141.457 103.195C141.287 103.055 141.072 102.955 140.812 102.895C140.562 102.825 140.202 102.75 139.732 102.67C139.092 102.57 138.567 102.455 138.157 102.325C137.757 102.195 137.412 101.975 137.122 101.665C136.832 101.355 136.687 100.92 136.687 100.36C136.687 99.64 136.987 99.065 137.587 98.635C138.187 98.195 138.992 97.975 140.002 97.975C140.532 97.975 141.062 98.04 141.592 98.17C142.122 98.3 142.557 98.475 142.897 98.695L142.282 99.835C141.632 99.415 140.867 99.205 139.987 99.205C139.377 99.205 138.912 99.305 138.592 99.505C138.272 99.705 138.112 99.97 138.112 100.3C138.112 100.56 138.202 100.765 138.382 100.915C138.562 101.065 138.782 101.175 139.042 101.245C139.312 101.315 139.687 101.395 140.167 101.485C140.807 101.595 141.322 101.715 141.712 101.845C142.112 101.965 142.452 102.175 142.732 102.475C143.012 102.775 143.152 103.195 143.152 103.735C143.152 104.455 142.842 105.03 142.222 105.46C141.612 105.88 140.777 106.09 139.717 106.09Z" fill="#632316"/>
<path d="M1.61133 54.3086L4.77539 53.8691L19.6875 15.3438H24.6387L39.2871 53.8691L42.4219 54.3086V58H30.1758V54.3086L33.3984 53.752L30.5859 45.9004H13.5059L10.6055 53.752L13.8281 54.3086V58H1.61133V54.3086ZM15.293 41.0664H28.8281L22.207 22.7559H22.0312L15.293 41.0664ZM75.8965 15.3438C81.4629 15.3438 85.9355 17.0625 89.3145 20.5C92.7129 23.918 94.4121 28.3418 94.4121 33.7715V39.6016C94.4121 45.0508 92.7129 49.4844 89.3145 52.9023C85.9355 56.3008 81.4629 58 75.8965 58H58.0254V54.3086L62.8008 53.4883V19.8848L58.0254 19.0645V15.3438H62.8008H75.8965ZM68.5723 19.8848V53.4883H75.8965C79.8418 53.4883 82.9473 52.1895 85.2129 49.5918C87.498 46.9941 88.6406 43.6641 88.6406 39.6016V33.7129C88.6406 29.6895 87.498 26.3789 85.2129 23.7812C82.9473 21.1836 79.8418 19.8848 75.8965 19.8848H68.5723ZM111.627 58V54.3086L116.402 53.4883V19.8848L111.627 19.0645V15.3438H144.381V25.5977H139.43L138.961 19.8848H122.174V33.6836H138.492V38.2246H122.174V53.4883H139.312L139.781 47.7754H144.703V58H111.627ZM161.889 58V54.3086L166.664 53.4883V19.8848L161.889 19.0645V15.3438H166.664H172.436H177.211V19.0645L172.436 19.8848V53.4883H187.26L187.699 48.5957H192.621V58H161.889Z" fill="#632316"/>
<line x1="158" y1="91" x2="195" y2="91" stroke="#632316" stroke-width="2"/>
<line y1="91" x2="37" y2="91" stroke="#632316" stroke-width="2"/>
</svg>
