<svg width="200" height="90" viewBox="0 0 200 90" fill="none" xmlns="http://www.w3.org/2000/svg">
<path d="M2.45204 32.4531L43.2955 1.37173C44.3622 0.559949 45.8381 0.554384 46.9109 1.3581L88.4021 32.441C89.7688 33.4648 90.0065 35.4214 88.9246 36.7426L72.8967 56.3164C72.3014 57.0433 71.123 56.6224 71.123 55.6828V24.9611C71.123 22.1997 68.8844 19.9611 66.123 19.9611H24.4296C21.6682 19.9611 19.4296 22.1997 19.4296 24.9611V55.643C19.4296 56.5871 18.2418 57.0054 17.6503 56.2697L1.93085 36.7203C0.872925 35.4047 1.10855 33.4755 2.45204 32.4531Z" fill="#1BABEA"/>
<path d="M2.45204 32.4531L43.2955 1.37173C44.3622 0.559949 45.8381 0.554384 46.9109 1.3581L88.4021 32.441C89.7688 33.4648 90.0065 35.4214 88.9246 36.7426L72.8967 56.3164C72.3014 57.0433 71.123 56.6224 71.123 55.6828V24.9611C71.123 22.1997 68.8844 19.9611 66.123 19.9611H24.4296C21.6682 19.9611 19.4296 22.1997 19.4296 24.9611V55.643C19.4296 56.5871 18.2418 57.0054 17.6503 56.2697L1.93085 36.7203C0.872925 35.4047 1.10855 33.4755 2.45204 32.4531Z" fill="url(#paint0_linear)" fill-opacity="0.25"/>
<path d="M59.4278 26.965H31.4813C30.929 26.965 30.4813 27.4127 30.4813 27.965V36.2957C30.4813 36.848 30.929 37.2957 31.4813 37.2957H59.4278C59.9801 37.2957 60.4278 36.848 60.4278 36.2957V27.965C60.4278 27.4127 59.9801 26.965 59.4278 26.965Z" fill="#1BABEA"/>
<path d="M59.4278 26.965H31.4813C30.929 26.965 30.4813 27.4127 30.4813 27.965V36.2957C30.4813 36.848 30.929 37.2957 31.4813 37.2957H59.4278C59.9801 37.2957 60.4278 36.848 60.4278 36.2957V27.965C60.4278 27.4127 59.9801 26.965 59.4278 26.965Z" fill="url(#paint1_linear)" fill-opacity="0.25"/>
<path d="M30.4813 72.4723V46.1751C30.4813 45.6228 30.929 45.1751 31.4813 45.1751H58.5365C59.0888 45.1751 59.5365 45.6228 59.5365 46.1751V72.4757C59.5365 72.7113 59.4534 72.9393 59.3017 73.1196L46.619 88.1924C45.823 89.1384 44.3679 89.1428 43.5662 88.2016L30.72 73.1207C30.5659 72.9398 30.4813 72.7099 30.4813 72.4723Z" fill="#1BABEA"/>
<path d="M30.4813 72.4723V46.1751C30.4813 45.6228 30.929 45.1751 31.4813 45.1751H58.5365C59.0888 45.1751 59.5365 45.6228 59.5365 46.1751V72.4757C59.5365 72.7113 59.4534 72.9393 59.3017 73.1196L46.619 88.1924C45.823 89.1384 44.3679 89.1428 43.5662 88.2016L30.72 73.1207C30.5659 72.9398 30.4813 72.7099 30.4813 72.4723Z" fill="url(#paint2_linear)" fill-opacity="0.25"/>
<path d="M114.832 31.9876H112.042L111.57 30.5897H107.807L107.335 31.9876H104.545L108.136 22.2754H111.226L114.832 31.9876ZM110.897 28.4056L109.681 24.7508L108.465 28.4056H110.897Z" fill="white"/>
<path d="M116.438 32.1623V29.949C116.915 29.949 117.287 29.7549 117.554 29.3666C117.83 28.9686 118.035 28.2454 118.169 27.197L118.741 22.2754H125.851V31.9876H123.391V24.4596H120.958L120.615 27.3863C120.501 28.3376 120.319 29.1385 120.071 29.7889C119.824 30.4296 119.509 30.9198 119.127 31.2595C118.746 31.5896 118.34 31.8226 117.911 31.9585C117.492 32.0944 117 32.1623 116.438 32.1623Z" fill="white"/>
<path d="M139.831 31.9876H137.371V25.6681L134.953 31.9876H133.866L131.462 25.6681V31.9876H129.002V22.2754H132.421L134.409 27.5465L136.412 22.2754H139.831V31.9876Z" fill="white"/>
<path d="M152.248 31.9876H149.459L148.987 30.5897H145.224L144.752 31.9876H141.962L145.553 22.2754H148.643L152.248 31.9876ZM148.314 28.4056L147.098 24.7508L145.882 28.4056H148.314Z" fill="white"/>
<path d="M157.79 32.1623C156.903 32.1623 156.092 32.0216 155.358 31.74C154.633 31.4585 154.08 31.0897 153.699 30.6334L154.943 28.9298C155.267 29.2501 155.692 29.5025 156.216 29.6869C156.751 29.8617 157.246 29.949 157.704 29.949C158.257 29.949 158.687 29.8617 158.992 29.6869C159.297 29.5122 159.45 29.2841 159.45 29.0026C159.45 28.7211 159.307 28.5172 159.02 28.391C158.744 28.2551 158.272 28.1872 157.604 28.1872H155.659V25.9885H157.604C158.73 25.9885 159.292 25.7361 159.292 25.2313C159.292 24.9401 159.13 24.7217 158.806 24.576C158.491 24.4207 158.071 24.3431 157.547 24.3431C156.545 24.3431 155.701 24.6537 155.015 25.275L153.827 23.7024C154.247 23.2267 154.8 22.8481 155.487 22.5666C156.183 22.2754 156.956 22.1298 157.804 22.1298C159.016 22.1298 159.974 22.3725 160.68 22.8579C161.395 23.3432 161.753 23.9888 161.753 24.7945C161.753 25.3478 161.548 25.8283 161.138 26.236C160.737 26.634 160.246 26.8815 159.664 26.9786C160.236 27.0368 160.752 27.2747 161.209 27.6921C161.677 28.0998 161.91 28.6288 161.91 29.2792C161.91 30.1238 161.524 30.8178 160.752 31.3615C159.979 31.8954 158.992 32.1623 157.79 32.1623Z" fill="white"/>
<path d="M173.57 31.9876H171.11V28.0852H167.147V31.9876H164.686V22.2754H167.147V25.9011H171.11V22.2754H173.57V31.9876Z" fill="white"/>
<path d="M176.721 22.2754H179.181V25.5371H181.499C182.529 25.5371 183.34 25.8477 183.931 26.469C184.522 27.0805 184.818 27.8426 184.818 28.755C184.818 29.6772 184.522 30.449 183.931 31.0702C183.34 31.6818 182.529 31.9876 181.499 31.9876H176.721V22.2754ZM181.17 27.7212H179.181V29.8034H181.17C181.504 29.8034 181.775 29.7112 181.985 29.5268C182.205 29.3423 182.314 29.0851 182.314 28.755C182.314 28.4347 182.205 28.1823 181.985 27.9979C181.775 27.8134 181.504 27.7212 181.17 27.7212ZM187.98 31.9876H185.519V22.2754H187.98V31.9876Z" fill="white"/>
<path d="M193.505 31.9876H191.13V22.2754H193.591V27.9979L197.454 22.2754H200V31.9876H197.525V25.9885L193.505 31.9876ZM198.069 20.5863C197.449 21.4406 196.614 21.8677 195.565 21.8677C194.526 21.8677 193.686 21.4406 193.047 20.5863L193.991 19.8C194.402 20.3631 194.926 20.6446 195.565 20.6446C196.233 20.6446 196.753 20.3631 197.124 19.8L198.069 20.5863Z" fill="white"/>
<path d="M123.527 69.3H104.795V38.9495H122.902C125.763 38.9495 127.953 39.7383 129.473 41.3157C130.993 42.8931 131.753 44.6829 131.753 46.6851C131.753 48.5355 131.277 50.0826 130.323 51.3264C129.369 52.5398 128.147 53.3133 126.657 53.647C128.296 53.8897 129.652 54.7087 130.725 56.1042C131.798 57.4693 132.335 59.1225 132.335 61.064C132.335 63.3392 131.575 65.2806 130.055 66.8884C128.535 68.4962 126.359 69.3 123.527 69.3ZM120.8 50.1433C121.277 50.1433 121.694 49.9764 122.052 49.6427C122.41 49.2787 122.589 48.8389 122.589 48.3232C122.589 47.8075 122.41 47.3979 122.052 47.0946C121.694 46.7609 121.277 46.594 120.8 46.594H113.826V50.1433H120.8ZM121.069 61.6555C121.724 61.6555 122.231 61.4887 122.589 61.155C122.976 60.791 123.17 60.3208 123.17 59.7444C123.17 59.1984 122.976 58.7434 122.589 58.3793C122.201 57.985 121.694 57.7878 121.069 57.7878H113.826V61.6555H121.069Z" fill="white"/>
<path d="M163.06 69.3H140.438V38.9495H163.06V46.9581H149.469V49.9613H162.747V57.9698H149.469V61.2915H163.06V69.3Z" fill="white"/>
<path d="M199.93 69.3H188.932L182.226 58.6068L180.572 60.882V69.3H171.541V38.9495H180.572V50.3253L188.396 38.9495H199.438L188.172 53.0555L199.93 69.3Z" fill="white"/>
<defs>
<linearGradient id="paint0_linear" x1="45.2916" y1="0" x2="45.2916" y2="90" gradientUnits="userSpaceOnUse">
<stop stop-color="white"/>
<stop offset="1" stop-color="white" stop-opacity="0"/>
</linearGradient>
<linearGradient id="paint1_linear" x1="45.2916" y1="0" x2="45.2916" y2="90" gradientUnits="userSpaceOnUse">
<stop stop-color="white"/>
<stop offset="1" stop-color="white" stop-opacity="0"/>
</linearGradient>
<linearGradient id="paint2_linear" x1="45.2916" y1="0" x2="45.2916" y2="90" gradientUnits="userSpaceOnUse">
<stop stop-color="white"/>
<stop offset="1" stop-color="white" stop-opacity="0"/>
</linearGradient>
</defs>
</svg>
