<svg width="120" height="55" viewBox="0 0 120 55" fill="none" xmlns="http://www.w3.org/2000/svg">
<path d="M2.39242 19.1184L25.2353 1.41335C26.3104 0.580073 27.8116 0.574386 28.893 1.39949L52.0991 19.1062C53.44 20.1293 53.6742 22.0564 52.6174 23.3709L44.4532 33.526C43.8616 34.2618 42.6738 33.8435 42.6738 32.8995V17.1984C42.6738 14.437 40.4352 12.1984 37.6738 12.1984H16.6578C13.8963 12.1984 11.6578 14.437 11.6578 17.1984V32.8588C11.6578 33.8073 10.4606 34.2229 9.87287 33.4784L1.8756 23.3485C0.842454 22.0399 1.07459 20.1399 2.39242 19.1184Z" fill="#1BABEA"/>
<path d="M2.39242 19.1184L25.2353 1.41335C26.3104 0.580073 27.8116 0.574386 28.893 1.39949L52.0991 19.1062C53.44 20.1293 53.6742 22.0564 52.6174 23.3709L44.4532 33.526C43.8616 34.2618 42.6738 33.8435 42.6738 32.8995V17.1984C42.6738 14.437 40.4352 12.1984 37.6738 12.1984H16.6578C13.8963 12.1984 11.6578 14.437 11.6578 17.1984V32.8588C11.6578 33.8073 10.4606 34.2229 9.87287 33.4784L1.8756 23.3485C0.842454 22.0399 1.07459 20.1399 2.39242 19.1184Z" fill="url(#paint0_linear)" fill-opacity="0.25"/>
<path d="M35.2567 16.4786H19.2888C18.7365 16.4786 18.2888 16.9263 18.2888 17.4786V21.7918C18.2888 22.3441 18.7365 22.7918 19.2888 22.7918H35.2567C35.809 22.7918 36.2567 22.3441 36.2567 21.7918V17.4786C36.2567 16.9263 35.809 16.4786 35.2567 16.4786Z" fill="#1BABEA"/>
<path d="M35.2567 16.4786H19.2888C18.7365 16.4786 18.2888 16.9263 18.2888 17.4786V21.7918C18.2888 22.3441 18.7365 22.7918 19.2888 22.7918H35.2567C35.809 22.7918 36.2567 22.3441 36.2567 21.7918V17.4786C36.2567 16.9263 35.809 16.4786 35.2567 16.4786Z" fill="url(#paint1_linear)" fill-opacity="0.25"/>
<path d="M18.2888 44.1506V28.607C18.2888 28.0547 18.7365 27.607 19.2888 27.607H34.7219C35.2742 27.607 35.7219 28.0547 35.7219 28.607V44.154C35.7219 44.3865 35.6409 44.6117 35.4929 44.7909L28.5913 53.145C27.7945 54.1095 26.3178 54.114 25.5152 53.1543L18.5217 44.7921C18.3712 44.6122 18.2888 44.3851 18.2888 44.1506Z" fill="#1BABEA"/>
<path d="M18.2888 44.1506V28.607C18.2888 28.0547 18.7365 27.607 19.2888 27.607H34.7219C35.2742 27.607 35.7219 28.0547 35.7219 28.607V44.154C35.7219 44.3865 35.6409 44.6117 35.4929 44.7909L28.5913 53.145C27.7945 54.1095 26.3178 54.114 25.5152 53.1543L18.5217 44.7921C18.3712 44.6122 18.2888 44.3851 18.2888 44.1506Z" fill="url(#paint2_linear)" fill-opacity="0.25"/>
<path d="M68.899 19.5475H67.2252L66.9419 18.6933H64.6844L64.4011 19.5475H62.7273L64.8818 13.6123H66.7359L68.899 19.5475ZM66.5385 17.3585L65.8089 15.1251L65.0792 17.3585H66.5385Z" fill="#0C1F34"/>
<path d="M69.8626 19.6543V18.3018C70.1488 18.3018 70.3719 18.1831 70.5322 17.9458C70.6981 17.7026 70.8212 17.2607 70.9013 16.62L71.2446 13.6123H75.5107V19.5475H74.0343V14.9471H72.5751L72.3691 16.7357C72.3004 17.317 72.1917 17.8064 72.0429 18.2039C71.8941 18.5954 71.7053 18.895 71.4764 19.1026C71.2475 19.3043 71.0043 19.4467 70.7468 19.5297C70.495 19.6128 70.2003 19.6543 69.8626 19.6543Z" fill="#0C1F34"/>
<path d="M83.8988 19.5475H82.4224V15.6857L80.9718 19.5475H80.3194L78.8774 15.6857V19.5475H77.401V13.6123H79.4525L80.6456 16.8335L81.8473 13.6123H83.8988V19.5475Z" fill="#0C1F34"/>
<path d="M91.3491 19.5475H89.6753L89.392 18.6933H87.1345L86.8512 19.5475H85.1774L87.3319 13.6123H89.186L91.3491 19.5475ZM88.9886 17.3585L88.259 15.1251L87.5294 17.3585H88.9886Z" fill="#0C1F34"/>
<path d="M94.6741 19.6543C94.1419 19.6543 93.6555 19.5683 93.2149 19.3963C92.7799 19.2242 92.448 18.9988 92.2191 18.72L92.9659 17.6789C93.1605 17.8747 93.4151 18.0289 93.7299 18.1416C94.0503 18.2484 94.3479 18.3018 94.6226 18.3018C94.9545 18.3018 95.212 18.2484 95.3951 18.1416C95.5782 18.0348 95.6698 17.8954 95.6698 17.7234C95.6698 17.5513 95.584 17.4268 95.4123 17.3496C95.2463 17.2666 94.9631 17.2251 94.5625 17.2251H93.3951V15.8814H94.5625C95.2378 15.8814 95.5754 15.7272 95.5754 15.4187C95.5754 15.2407 95.4781 15.1073 95.2835 15.0183C95.0947 14.9234 94.8429 14.8759 94.5282 14.8759C93.9273 14.8759 93.4209 15.0657 93.0089 15.4454L92.2964 14.4844C92.5482 14.1937 92.8801 13.9623 93.2921 13.7903C93.7099 13.6123 94.1734 13.5233 94.6827 13.5233C95.4094 13.5233 95.9845 13.6717 96.408 13.9683C96.8372 14.2649 97.0518 14.6594 97.0518 15.1517C97.0518 15.4899 96.9287 15.7835 96.6827 16.0327C96.4423 16.2759 96.1476 16.4272 95.7986 16.4865C96.1419 16.5221 96.4509 16.6674 96.7256 16.9225C97.006 17.1717 97.1462 17.495 97.1462 17.8924C97.1462 18.4086 96.9144 18.8327 96.4509 19.1649C95.9874 19.4912 95.3951 19.6543 94.6741 19.6543Z" fill="#0C1F34"/>
<path d="M104.142 19.5475H102.666V17.1628H100.288V19.5475H98.8116V13.6123H100.288V15.828H102.666V13.6123H104.142V19.5475Z" fill="#0C1F34"/>
<path d="M106.032 13.6123H107.509V15.6056H108.899C109.517 15.6056 110.004 15.7954 110.359 16.1751C110.713 16.5488 110.891 17.0145 110.891 17.5721C110.891 18.1357 110.713 18.6073 110.359 18.9869C110.004 19.3607 109.517 19.5475 108.899 19.5475H106.032V13.6123ZM108.702 16.9403H107.509V18.2128H108.702C108.902 18.2128 109.065 18.1564 109.191 18.0437C109.323 17.931 109.389 17.7738 109.389 17.5721C109.389 17.3763 109.323 17.2221 109.191 17.1094C109.065 16.9967 108.902 16.9403 108.702 16.9403ZM112.788 19.5475H111.311V13.6123H112.788V19.5475Z" fill="#0C1F34"/>
<path d="M116.103 19.5475H114.678V13.6123H116.155V17.1094L118.472 13.6123H120V19.5475H118.515V15.8814L116.103 19.5475ZM118.841 12.5801C118.469 13.1022 117.969 13.3632 117.339 13.3632C116.715 13.3632 116.212 13.1022 115.828 12.5801L116.395 12.0996C116.641 12.4437 116.956 12.6157 117.339 12.6157C117.74 12.6157 118.052 12.4437 118.275 12.0996L118.841 12.5801Z" fill="#0C1F34"/>
<path d="M74.1165 42.3496H62.8771V23.8021H73.7409C75.4577 23.8021 76.772 24.2841 77.6841 25.2481C78.5961 26.212 79.0521 27.3058 79.0521 28.5293C79.0521 29.6602 78.766 30.6056 78.1937 31.3657C77.6215 32.1072 76.8883 32.5799 75.9941 32.7839C76.9777 32.9322 77.7914 33.4327 78.4351 34.2855C79.0789 35.1197 79.4008 36.13 79.4008 37.3165C79.4008 38.7068 78.9448 39.8933 78.0328 40.8758C77.1208 41.8583 75.8153 42.3496 74.1165 42.3496ZM72.4802 30.6427C72.7663 30.6427 73.0167 30.5407 73.2313 30.3368C73.4459 30.1144 73.5531 29.8455 73.5531 29.5304C73.5531 29.2152 73.4459 28.965 73.2313 28.7796C73.0167 28.5757 72.7663 28.4737 72.4802 28.4737H68.2956V30.6427H72.4802ZM72.6411 37.678C73.0345 37.678 73.3386 37.576 73.5531 37.3721C73.7856 37.1496 73.9019 36.8623 73.9019 36.5101C73.9019 36.1764 73.7856 35.8983 73.5531 35.6758C73.3207 35.4348 73.0167 35.3143 72.6411 35.3143H68.2956V37.678H72.6411Z" fill="#0C1F34"/>
<path d="M97.8361 42.3496H84.2631V23.8021H97.8361V28.6962H89.6816V30.5315H97.6483V35.4256H89.6816V37.4555H97.8361V42.3496Z" fill="#0C1F34"/>
<path d="M119.958 42.3496H113.359L109.336 35.8149L108.343 37.2052V42.3496H102.925V23.8021H108.343V30.7539L113.037 23.8021H119.663L112.903 32.4224L119.958 42.3496Z" fill="#0C1F34"/>
<defs>
<linearGradient id="paint0_linear" x1="27.175" y1="0" x2="27.175" y2="55" gradientUnits="userSpaceOnUse">
<stop stop-color="white"/>
<stop offset="1" stop-color="white" stop-opacity="0"/>
</linearGradient>
<linearGradient id="paint1_linear" x1="27.175" y1="0" x2="27.175" y2="55" gradientUnits="userSpaceOnUse">
<stop stop-color="white"/>
<stop offset="1" stop-color="white" stop-opacity="0"/>
</linearGradient>
<linearGradient id="paint2_linear" x1="27.175" y1="0" x2="27.175" y2="55" gradientUnits="userSpaceOnUse">
<stop stop-color="white"/>
<stop offset="1" stop-color="white" stop-opacity="0"/>
</linearGradient>
</defs>
</svg>
