<svg width="48" height="29" viewBox="0 0 48 29" fill="none" xmlns="http://www.w3.org/2000/svg">
<path d="M47.6954 14.5C47.6954 22.4564 41.3761 29 33.5314 29C25.7594 29 19.3674 22.4564 19.3674 14.5C19.3674 6.54359 25.6868 0 33.4588 0C41.3761 0 47.6954 6.54359 47.6954 14.5Z" fill="#F9B50B"/>
<path d="M28.7375 14.5744C28.7375 13.5333 28.5923 12.4923 28.447 11.5256H19.7307C19.8033 11.0051 19.9486 10.559 20.0939 9.9641H27.8659C27.7206 9.44359 27.5027 8.92308 27.2848 8.40256H20.675C20.8929 7.88205 21.1834 7.4359 21.474 6.84103H26.4858C26.1953 6.32051 25.8321 5.8 25.3963 5.27949H22.6361C23.0719 4.75897 23.5078 4.31282 24.0888 3.79231C21.6192 1.41282 18.278 0 14.5735 0C6.87414 0.223077 0.482178 6.54359 0.482178 14.5C0.482178 22.4564 6.8015 29 14.6462 29C18.3506 29 21.6192 27.5128 24.1615 25.2077C24.6699 24.7615 25.1057 24.241 25.6142 23.6462H22.7088C22.3456 23.2 21.9824 22.6795 21.6919 22.159H26.6311C26.9216 21.7128 27.2122 21.1923 27.4301 20.5974H20.8202C20.6023 20.1513 20.3844 19.6308 20.2391 19.0359H28.0112C28.447 17.6974 28.7375 16.2103 28.7375 14.5744Z" fill="#C8191C"/>
<path d="M19.6578 18.2174L19.8757 16.8789C19.8031 16.8789 19.6578 16.9532 19.5126 16.9532C19.0041 16.9532 18.9315 16.6558 19.0041 16.5071L19.4399 13.8302H20.2389L20.4568 12.343H19.7305L19.8757 11.4507H18.3504C18.3504 11.4507 17.4788 16.5071 17.4788 17.102C17.4788 17.9943 17.9872 18.4404 18.7136 18.4404C19.1494 18.4404 19.5126 18.2917 19.6578 18.2174Z" fill="white"/>
<path d="M20.1667 15.7644C20.1667 17.9209 21.6195 18.4414 22.7816 18.4414C23.8712 18.4414 24.3796 18.2183 24.3796 18.2183L24.6702 16.7311C24.6702 16.7311 23.8712 17.1029 23.0722 17.1029C21.4016 17.1029 21.6921 15.8388 21.6921 15.8388H24.7428C24.7428 15.8388 24.9607 14.8721 24.9607 14.426C24.9607 13.4593 24.4523 12.1952 22.7816 12.1952C21.3289 12.1209 20.1667 13.8311 20.1667 15.7644ZM22.7816 13.5337C23.5806 13.5337 23.4354 14.5003 23.4354 14.5747H21.7647C21.8374 14.5003 21.9826 13.5337 22.7816 13.5337Z" fill="white"/>
<path d="M32.2967 18.2173L32.5873 16.507C32.5873 16.507 31.8609 16.8788 31.2798 16.8788C30.2629 16.8788 29.7545 16.0609 29.7545 15.0942C29.7545 13.2352 30.6261 12.2686 31.7157 12.2686C32.442 12.2686 33.0957 12.7147 33.0957 12.7147L33.3136 11.0788C33.3136 11.0788 32.442 10.707 31.5704 10.707C29.8271 10.707 28.1565 12.2686 28.1565 15.1686C28.1565 17.1019 29.0281 18.366 30.844 18.366C31.4977 18.4404 32.2967 18.2173 32.2967 18.2173Z" fill="white"/>
<path d="M11.4502 12.1206C10.4333 12.1206 9.63433 12.418 9.63433 12.418L9.41643 13.7565C9.41643 13.7565 10.0702 13.4591 11.0871 13.4591C11.5955 13.4591 12.0313 13.5334 12.0313 13.9796C12.0313 14.277 11.9587 14.3514 11.9587 14.3514H11.305C9.99751 14.3514 8.61743 14.8719 8.61743 16.6565C8.61743 18.0693 9.48906 18.3668 10.0701 18.3668C11.0871 18.3668 11.5955 17.6975 11.6681 17.6975L11.5955 18.2924H12.8303L13.4114 14.0539C13.4114 12.195 11.9587 12.1206 11.4502 12.1206ZM11.7408 15.5411C11.7408 15.7642 11.5955 17.0283 10.7239 17.0283C10.2881 17.0283 10.1428 16.6565 10.1428 16.4334C10.1428 16.0616 10.3607 15.5411 11.5229 15.5411C11.6681 15.5411 11.7408 15.5411 11.7408 15.5411Z" fill="white"/>
<path d="M14.864 18.3674C15.2272 18.3674 17.1157 18.4417 17.1157 16.3597C17.1157 14.4264 15.2998 14.7982 15.2998 14.0546C15.2998 13.6828 15.5904 13.5341 16.0988 13.5341C16.3167 13.5341 17.1157 13.6084 17.1157 13.6084L17.3336 12.1956C17.3336 12.1956 16.8252 12.0469 15.8809 12.0469C14.7914 12.0469 13.6292 12.493 13.6292 14.0546C13.6292 15.8392 15.5177 15.6905 15.5177 16.3597C15.5177 16.8058 15.0093 16.8802 14.6461 16.8802C13.9924 16.8802 13.266 16.6571 13.266 16.6571L13.0481 18.07C13.1934 18.2187 13.6292 18.3674 14.864 18.3674Z" fill="white"/>
<path d="M44.7902 10.9312L44.4996 13.0132C44.4996 13.0132 43.9185 12.2696 43.0469 12.2696C41.6668 12.2696 40.5046 13.9799 40.5046 15.9876C40.5046 17.2517 41.0857 18.5158 42.3932 18.5158C43.2648 18.5158 43.8459 17.9209 43.8459 17.9209L43.7733 18.4414H45.2986L46.3881 11.0799L44.7902 10.9312ZM44.0638 14.9465C44.0638 15.7645 43.7006 16.8799 42.829 16.8799C42.3205 16.8799 42.03 16.4337 42.03 15.6158C42.03 14.3517 42.5384 13.6081 43.2648 13.6081C43.7733 13.6824 44.0638 14.0542 44.0638 14.9465Z" fill="white"/>
<path d="M3.24202 18.2927L4.11366 12.7901L4.25893 18.2927H5.27583L7.237 12.7901L6.438 18.2927H8.03599L9.27081 10.9312H6.80118L5.27583 15.467L5.20319 10.9312H3.02412L1.78931 18.2927H3.24202Z" fill="white"/>
<path d="M26.4858 18.2916C26.9216 15.7634 26.9943 13.6814 28.0838 14.0532C28.2291 13.0865 28.447 12.6403 28.5923 12.2686H28.3017C27.648 12.2686 27.0669 13.1609 27.0669 13.1609L27.2122 12.3429H25.7595L24.8152 18.2916H26.4858Z" fill="white"/>
<path d="M35.7832 12.1206C34.7663 12.1206 33.9673 12.418 33.9673 12.418L33.7494 13.7565C33.7494 13.7565 34.4032 13.4591 35.4201 13.4591C35.9285 13.4591 36.3643 13.5334 36.3643 13.9796C36.3643 14.277 36.2917 14.3514 36.2917 14.3514H35.638C34.3305 14.3514 32.9504 14.8719 32.9504 16.6565C32.9504 18.0693 33.8221 18.3668 34.4032 18.3668C35.4201 18.3668 35.9285 17.6975 36.0011 17.6975L35.9285 18.2924H37.3086L37.8897 14.0539C37.8897 12.195 36.2917 12.1206 35.7832 12.1206ZM36.1464 15.5411C36.1464 15.7642 36.0011 17.0283 35.1295 17.0283C34.6937 17.0283 34.5484 16.6565 34.5484 16.4334C34.5484 16.0616 34.7663 15.5411 35.9285 15.5411C36.0738 15.5411 36.0738 15.5411 36.1464 15.5411Z" fill="white"/>
<path d="M39.0517 18.2916C39.4875 15.7634 39.5602 13.6814 40.6497 14.0532C40.795 13.0865 41.0129 12.6403 41.1582 12.2686H40.8676C40.2139 12.2686 39.6328 13.1609 39.6328 13.1609L39.7781 12.3429H38.3254L37.3811 18.2916H39.0517Z" fill="white"/>
</svg>
