<svg width="32" height="34" viewBox="0 0 32 34" fill="none" xmlns="http://www.w3.org/2000/svg">
<path d="M15.758 16.378C18.2962 16.378 20.4939 15.571 22.29 13.9788C24.0856 12.3868 24.9963 10.439 24.9963 8.18872C24.9963 5.93921 24.0859 3.99112 22.2897 2.39867C20.4936 0.806992 18.296 0 15.758 0C13.2195 0 11.0221 0.806992 9.22626 2.39893C7.4304 3.99086 6.51974 5.93895 6.51974 8.18872C6.51974 10.439 7.4304 12.3871 9.22626 13.979C11.0227 15.5707 13.2203 16.378 15.758 16.378ZM10.8158 3.80772C12.1938 2.58621 13.8103 1.99245 15.758 1.99245C17.7054 1.99245 19.3222 2.58621 20.7005 3.80772C22.0785 5.0295 22.7486 6.46268 22.7486 8.18872C22.7486 9.91528 22.0785 11.3482 20.7005 12.57C19.3222 13.7917 17.7054 14.3855 15.758 14.3855C13.8109 14.3855 12.1944 13.7915 10.8158 12.57C9.43753 11.3485 8.76742 9.91528 8.76742 8.18872C8.76742 6.46268 9.43753 5.0295 10.8158 3.80772Z" fill="#632316"/>
<path d="M31.9225 26.1443C31.8707 25.4818 31.7659 24.7592 31.6117 23.996C31.456 23.2271 31.2556 22.5003 31.0156 21.836C30.7675 21.1494 30.4306 20.4713 30.0136 19.8215C29.5814 19.147 29.0734 18.5598 28.5034 18.0765C27.9073 17.5709 27.1775 17.1645 26.3336 16.868C25.4925 16.573 24.5605 16.4236 23.5635 16.4236C23.172 16.4236 22.7934 16.566 22.0621 16.9881C21.612 17.2482 21.0856 17.5491 20.498 17.882C19.9955 18.1657 19.3149 18.4316 18.4742 18.6723C17.6539 18.9076 16.8211 19.0269 15.9988 19.0269C15.1771 19.0269 14.3443 18.9076 13.5235 18.6723C12.6837 18.4319 12.0027 18.166 11.5011 17.8822C10.9191 17.5525 10.3924 17.2516 9.93559 16.9878C9.20489 16.5658 8.82623 16.4234 8.4347 16.4234C7.43742 16.4234 6.5057 16.573 5.66498 16.8682C4.82163 17.1642 4.09152 17.5707 3.49485 18.0768C2.92481 18.5603 2.41681 19.1473 1.98489 19.8215C1.56848 20.4713 1.23138 21.1491 0.983229 21.8362C0.743567 22.5006 0.543117 23.2271 0.387439 23.996C0.232932 24.7581 0.128464 25.4811 0.0766685 26.1451C0.0257512 26.7944 0 27.4701 0 28.1529C0 29.9277 0.636465 31.3645 1.89154 32.4241C3.13112 33.4698 4.771 34 6.76584 34H25.2342C27.2284 34 28.8683 33.4698 30.1082 32.4241C31.3635 31.3653 32 29.9279 32 28.1526C31.9997 27.4675 31.9737 26.7918 31.9225 26.1443ZM28.5584 30.9806C27.7393 31.6716 26.6519 32.0076 25.2339 32.0076H6.76584C5.34748 32.0076 4.26007 31.6716 3.4413 30.9809C2.63804 30.303 2.24767 29.3778 2.24767 28.1529C2.24767 27.5158 2.27138 26.8867 2.31878 26.2829C2.36502 25.6904 2.45954 25.0396 2.5997 24.348C2.73812 23.665 2.91428 23.024 3.1238 22.4438C3.32483 21.8873 3.59903 21.3364 3.93906 20.8056C4.26358 20.2998 4.63698 19.8658 5.049 19.5162C5.43439 19.1891 5.92015 18.9214 6.49253 18.7206C7.02189 18.5349 7.6168 18.4332 8.26263 18.4179C8.34135 18.455 8.48152 18.5258 8.7086 18.657C9.17066 18.924 9.70324 19.2285 10.292 19.5618C10.9557 19.9369 11.8107 20.2757 12.8323 20.568C13.8767 20.8674 14.9419 21.0194 15.9991 21.0194C17.0564 21.0194 18.1218 20.8674 19.1656 20.5683C20.1881 20.2754 21.0429 19.9369 21.7074 19.5613C22.3099 19.2199 22.8276 18.9242 23.2896 18.657C23.5167 18.526 23.6569 18.455 23.7356 18.4179C24.3817 18.4332 24.9766 18.5349 25.5063 18.7206C26.0784 18.9214 26.5641 19.1893 26.9495 19.5162C27.3616 19.8656 27.735 20.2996 28.0595 20.8059C28.3998 21.3364 28.6743 21.8876 28.875 22.4435C29.0848 23.0246 29.2613 23.6653 29.3994 24.3477C29.5393 25.0406 29.6341 25.6917 29.6803 26.2831V26.2836C29.728 26.8852 29.752 27.514 29.7523 28.1529C29.752 29.378 29.3617 30.303 28.5584 30.9806Z" fill="#632316"/>
</svg>
