<svg width="79" height="100" viewBox="0 0 79 100" fill="none" xmlns="http://www.w3.org/2000/svg">
<path d="M77.7337 41.0604C79.7086 38.0247 79.3438 34.0749 76.8467 31.455C75.7461 30.3003 75.2861 28.6781 75.6159 27.1152C76.3647 23.5685 74.6025 20.0175 71.3306 18.4798C69.8886 17.8021 68.8756 16.456 68.6204 14.8791C68.0417 11.3006 65.12 8.6281 61.5156 8.38006C59.9271 8.27068 58.4977 7.38279 57.6921 6.00467C55.8639 2.87792 52.1784 1.44492 48.7272 2.51992C47.2066 2.99374 45.5543 2.68359 44.3068 1.69082C41.4764 -0.562303 37.5232 -0.562303 34.6929 1.69082C33.4456 2.68398 31.793 2.99374 30.2726 2.51992C26.8222 1.44472 23.1356 2.87773 21.3077 6.00467C20.502 7.38279 19.0729 8.27068 17.4843 8.38006C13.8797 8.6281 10.9582 11.3008 10.3793 14.8791C10.1243 16.456 9.11113 17.8021 7.66934 18.4798C4.39763 20.0177 2.63544 23.5687 3.38388 27.1152C3.71381 28.6781 3.25365 30.3005 2.15329 31.4552C-0.343716 34.0751 -0.708689 38.0251 1.26625 41.0608C2.13654 42.3985 2.29168 44.0782 1.68106 45.5538C0.295717 48.9018 1.37779 52.7172 4.31198 54.8321C5.60525 55.7643 6.35447 57.2743 6.31632 58.8713C6.23008 62.4953 8.61263 65.661 12.1101 66.5696C13.1426 66.8377 14.0395 67.4371 14.6823 68.2547L6.63846 87.7396C5.51123 90.4703 8.06254 93.2822 10.8759 92.4156L19.6823 89.7039C19.9396 89.6252 20.2172 89.7406 20.3432 89.9787L24.6592 98.1443C26.0399 100.756 29.8249 100.572 30.9507 97.8445L39.3346 77.5357C39.4446 77.532 39.5546 77.532 39.6645 77.5357L48.0484 97.8445C49.1764 100.576 52.9613 100.753 54.3402 98.1445L58.6562 89.9787C58.7819 89.7404 59.0597 89.625 59.317 89.7041L68.1233 92.4158C70.9382 93.2828 73.4875 90.4689 72.3609 87.7398L64.3169 68.2549C64.9596 67.4373 65.8566 66.8379 66.889 66.5698C70.3865 65.6614 72.7689 62.4957 72.6828 58.8715C72.6447 57.2745 73.3941 55.7645 74.6874 54.8325C77.6218 52.7174 78.7034 48.902 77.3181 45.554C76.7085 44.0778 76.8636 42.3981 77.7337 41.0604ZM28.2538 96.723C28.0707 97.1667 27.4622 97.1939 27.2389 96.7714L22.9229 88.6058C22.1421 87.1287 20.4193 86.4131 18.8264 86.9033L10.02 89.615C9.56312 89.7552 9.15337 89.3037 9.33635 88.8605L16.4727 71.5729C18.0829 73.7859 20.7745 75.0193 23.6081 74.6873C25.1894 74.5023 26.757 75.1113 27.8013 76.3172C29.3162 78.0672 31.451 78.9961 33.629 78.9959C34.3178 78.9959 35.0108 78.8992 35.6901 78.71L28.2538 96.723ZM68.9804 89.6148L60.1741 86.9031C58.5813 86.4129 56.858 87.1287 56.0774 88.6056L51.7614 96.7712C51.5385 97.1933 50.9293 97.166 50.7463 96.7228L43.3116 78.7133C46.1377 79.5004 49.2052 78.6195 51.1991 76.3168C52.2432 75.1107 53.8101 74.5014 55.3923 74.6869C58.2285 75.0195 60.9184 73.7858 62.5276 71.5727L69.6644 88.8597C69.8477 89.3047 69.4357 89.7545 68.9804 89.6148ZM75.289 39.4593C73.8911 41.6083 73.6419 44.3063 74.6226 46.6766C75.4849 48.7608 74.8116 51.1358 72.9847 52.4526C70.9074 53.9499 69.7037 56.3754 69.7648 58.9409C69.8185 61.1971 68.3353 63.1678 66.1579 63.7332C64.1213 64.2623 62.411 65.5924 61.3854 67.391C61.3827 67.3963 61.3798 67.4014 61.377 67.4065C61.1596 67.7899 60.9712 68.1934 60.8196 68.6162C60.0575 70.7395 57.9663 72.0406 55.7312 71.7777C53.1911 71.4797 50.6725 72.4588 48.9952 74.3961C47.5203 76.0996 45.101 76.5533 43.112 75.4996C42.4356 75.141 41.7193 74.8922 40.9878 74.7483C40.9818 74.7469 40.9757 74.7455 40.9697 74.7443C39.998 74.5555 38.9994 74.5557 38.0277 74.7451C38.0242 74.7459 38.0209 74.7467 38.0174 74.7473C37.2841 74.8912 36.5665 75.1404 35.8885 75.4996C33.8995 76.5535 31.4804 76.0996 30.0055 74.3961C28.5265 72.6881 26.3945 71.7252 24.1694 71.7252C23.8708 71.7252 23.5701 71.7426 23.2694 71.7779C21.0363 72.0402 18.9428 70.7399 18.1808 68.6164C18.0291 68.194 17.8411 67.791 17.6239 67.4078C17.6206 67.4016 17.6172 67.3957 17.6139 67.3895C16.5881 65.5916 14.8785 64.2621 12.8424 63.7332C10.665 63.1676 9.18199 61.1971 9.23571 58.9411C9.29683 56.3754 8.0931 53.9501 6.01577 52.4526C4.18915 51.136 3.51546 48.7608 4.37797 46.6764C5.35863 44.3061 5.10947 41.6081 3.71148 39.4591C2.48225 37.5694 2.70921 35.1105 4.2639 33.4796C6.03154 31.6249 6.77063 29.0187 6.24079 26.5081C5.77479 24.3003 6.87185 22.0898 8.9085 21.1324C11.2247 20.0437 12.852 17.8814 13.2619 15.3482C13.6222 13.1205 15.441 11.4568 17.6848 11.3025C20.2365 11.1269 22.5326 9.70056 23.8267 7.4867C24.9648 5.54022 27.2601 4.64843 29.4073 5.31756C31.85 6.0787 34.5045 5.58085 36.5083 3.98573C38.2699 2.583 40.731 2.583 42.4932 3.98573C44.4968 5.58065 47.1509 6.07889 49.594 5.31756C51.7419 4.64823 54.0369 5.54042 55.1746 7.4867C56.4687 9.70037 58.7648 11.1267 61.3165 11.3025C63.5603 11.457 65.3791 13.1207 65.7394 15.3482C66.1493 17.8814 67.7768 20.0437 70.0928 21.1326C72.1296 22.0898 73.2265 24.3003 72.7605 26.5081C72.2307 29.0187 72.9696 31.6249 74.7374 33.4796C76.2913 35.1105 76.5183 37.5694 75.289 39.4593Z" fill="#1BABEA"/>
<path d="M77.7337 41.0604C79.7086 38.0247 79.3438 34.0749 76.8467 31.455C75.7461 30.3003 75.2861 28.6781 75.6159 27.1152C76.3647 23.5685 74.6025 20.0175 71.3306 18.4798C69.8886 17.8021 68.8756 16.456 68.6204 14.8791C68.0417 11.3006 65.12 8.6281 61.5156 8.38006C59.9271 8.27068 58.4977 7.38279 57.6921 6.00467C55.8639 2.87792 52.1784 1.44492 48.7272 2.51992C47.2066 2.99374 45.5543 2.68359 44.3068 1.69082C41.4764 -0.562303 37.5232 -0.562303 34.6929 1.69082C33.4456 2.68398 31.793 2.99374 30.2726 2.51992C26.8222 1.44472 23.1356 2.87773 21.3077 6.00467C20.502 7.38279 19.0729 8.27068 17.4843 8.38006C13.8797 8.6281 10.9582 11.3008 10.3793 14.8791C10.1243 16.456 9.11113 17.8021 7.66934 18.4798C4.39763 20.0177 2.63544 23.5687 3.38388 27.1152C3.71381 28.6781 3.25365 30.3005 2.15329 31.4552C-0.343716 34.0751 -0.708689 38.0251 1.26625 41.0608C2.13654 42.3985 2.29168 44.0782 1.68106 45.5538C0.295717 48.9018 1.37779 52.7172 4.31198 54.8321C5.60525 55.7643 6.35447 57.2743 6.31632 58.8713C6.23008 62.4953 8.61263 65.661 12.1101 66.5696C13.1426 66.8377 14.0395 67.4371 14.6823 68.2547L6.63846 87.7396C5.51123 90.4703 8.06254 93.2822 10.8759 92.4156L19.6823 89.7039C19.9396 89.6252 20.2172 89.7406 20.3432 89.9787L24.6592 98.1443C26.0399 100.756 29.8249 100.572 30.9507 97.8445L39.3346 77.5357C39.4446 77.532 39.5546 77.532 39.6645 77.5357L48.0484 97.8445C49.1764 100.576 52.9613 100.753 54.3402 98.1445L58.6562 89.9787C58.7819 89.7404 59.0597 89.625 59.317 89.7041L68.1233 92.4158C70.9382 93.2828 73.4875 90.4689 72.3609 87.7398L64.3169 68.2549C64.9596 67.4373 65.8566 66.8379 66.889 66.5698C70.3865 65.6614 72.7689 62.4957 72.6828 58.8715C72.6447 57.2745 73.3941 55.7645 74.6874 54.8325C77.6218 52.7174 78.7034 48.902 77.3181 45.554C76.7085 44.0778 76.8636 42.3981 77.7337 41.0604ZM28.2538 96.723C28.0707 97.1667 27.4622 97.1939 27.2389 96.7714L22.9229 88.6058C22.1421 87.1287 20.4193 86.4131 18.8264 86.9033L10.02 89.615C9.56312 89.7552 9.15337 89.3037 9.33635 88.8605L16.4727 71.5729C18.0829 73.7859 20.7745 75.0193 23.6081 74.6873C25.1894 74.5023 26.757 75.1113 27.8013 76.3172C29.3162 78.0672 31.451 78.9961 33.629 78.9959C34.3178 78.9959 35.0108 78.8992 35.6901 78.71L28.2538 96.723ZM68.9804 89.6148L60.1741 86.9031C58.5813 86.4129 56.858 87.1287 56.0774 88.6056L51.7614 96.7712C51.5385 97.1933 50.9293 97.166 50.7463 96.7228L43.3116 78.7133C46.1377 79.5004 49.2052 78.6195 51.1991 76.3168C52.2432 75.1107 53.8101 74.5014 55.3923 74.6869C58.2285 75.0195 60.9184 73.7858 62.5276 71.5727L69.6644 88.8597C69.8477 89.3047 69.4357 89.7545 68.9804 89.6148ZM75.289 39.4593C73.8911 41.6083 73.6419 44.3063 74.6226 46.6766C75.4849 48.7608 74.8116 51.1358 72.9847 52.4526C70.9074 53.9499 69.7037 56.3754 69.7648 58.9409C69.8185 61.1971 68.3353 63.1678 66.1579 63.7332C64.1213 64.2623 62.411 65.5924 61.3854 67.391C61.3827 67.3963 61.3798 67.4014 61.377 67.4065C61.1596 67.7899 60.9712 68.1934 60.8196 68.6162C60.0575 70.7395 57.9663 72.0406 55.7312 71.7777C53.1911 71.4797 50.6725 72.4588 48.9952 74.3961C47.5203 76.0996 45.101 76.5533 43.112 75.4996C42.4356 75.141 41.7193 74.8922 40.9878 74.7483C40.9818 74.7469 40.9757 74.7455 40.9697 74.7443C39.998 74.5555 38.9994 74.5557 38.0277 74.7451C38.0242 74.7459 38.0209 74.7467 38.0174 74.7473C37.2841 74.8912 36.5665 75.1404 35.8885 75.4996C33.8995 76.5535 31.4804 76.0996 30.0055 74.3961C28.5265 72.6881 26.3945 71.7252 24.1694 71.7252C23.8708 71.7252 23.5701 71.7426 23.2694 71.7779C21.0363 72.0402 18.9428 70.7399 18.1808 68.6164C18.0291 68.194 17.8411 67.791 17.6239 67.4078C17.6206 67.4016 17.6172 67.3957 17.6139 67.3895C16.5881 65.5916 14.8785 64.2621 12.8424 63.7332C10.665 63.1676 9.18199 61.1971 9.23571 58.9411C9.29683 56.3754 8.0931 53.9501 6.01577 52.4526C4.18915 51.136 3.51546 48.7608 4.37797 46.6764C5.35863 44.3061 5.10947 41.6081 3.71148 39.4591C2.48225 37.5694 2.70921 35.1105 4.2639 33.4796C6.03154 31.6249 6.77063 29.0187 6.24079 26.5081C5.77479 24.3003 6.87185 22.0898 8.9085 21.1324C11.2247 20.0437 12.852 17.8814 13.2619 15.3482C13.6222 13.1205 15.441 11.4568 17.6848 11.3025C20.2365 11.1269 22.5326 9.70056 23.8267 7.4867C24.9648 5.54022 27.2601 4.64843 29.4073 5.31756C31.85 6.0787 34.5045 5.58085 36.5083 3.98573C38.2699 2.583 40.731 2.583 42.4932 3.98573C44.4968 5.58065 47.1509 6.07889 49.594 5.31756C51.7419 4.64823 54.0369 5.54042 55.1746 7.4867C56.4687 9.70037 58.7648 11.1267 61.3165 11.3025C63.5603 11.457 65.3791 13.1207 65.7394 15.3482C66.1493 17.8814 67.7768 20.0437 70.0928 21.1326C72.1296 22.0898 73.2265 24.3003 72.7605 26.5081C72.2307 29.0187 72.9696 31.6249 74.7374 33.4796C76.2913 35.1105 76.5183 37.5694 75.289 39.4593Z" fill="url(#paint0_linear)" fill-opacity="0.1"/>
<path d="M11.8499 37.5259C12.6493 37.6245 13.3787 37.0538 13.477 36.2511C15.0891 23.1037 26.2767 13.1894 39.5001 13.1894C52.7298 13.1894 63.9178 23.1089 65.5247 36.2634C65.6154 37.0058 66.2449 37.5501 66.9717 37.5501C67.0311 37.5501 67.0909 37.5464 67.1512 37.539C67.9514 37.4405 68.5206 36.7099 68.4227 35.9069C66.6366 21.2857 54.2025 10.2599 39.5001 10.2599C24.8044 10.2599 12.3712 21.2798 10.5792 35.8933C10.4809 36.6962 11.0497 37.4271 11.8499 37.5259Z" fill="#1BABEA"/>
<path d="M11.8499 37.5259C12.6493 37.6245 13.3787 37.0538 13.477 36.2511C15.0891 23.1037 26.2767 13.1894 39.5001 13.1894C52.7298 13.1894 63.9178 23.1089 65.5247 36.2634C65.6154 37.0058 66.2449 37.5501 66.9717 37.5501C67.0311 37.5501 67.0909 37.5464 67.1512 37.539C67.9514 37.4405 68.5206 36.7099 68.4227 35.9069C66.6366 21.2857 54.2025 10.2599 39.5001 10.2599C24.8044 10.2599 12.3712 21.2798 10.5792 35.8933C10.4809 36.6962 11.0497 37.4271 11.8499 37.5259Z" fill="url(#paint1_linear)" fill-opacity="0.1"/>
<path d="M67.1514 41.4577C66.3535 41.3601 65.623 41.9306 65.5249 42.7335C63.9186 55.8885 52.7304 65.8086 39.5001 65.8086C26.2758 65.8086 15.0881 55.8934 13.4766 42.745C13.3783 41.9423 12.6503 41.3718 11.8495 41.47C11.0495 41.5686 10.4803 42.2997 10.5788 43.1026C12.37 57.7172 24.8032 68.7379 39.4999 68.7379C54.2031 68.7379 66.6371 57.7116 68.4225 43.0895C68.5208 42.2868 67.9516 41.5561 67.1514 41.4577Z" fill="#1BABEA"/>
<path d="M67.1514 41.4577C66.3535 41.3601 65.623 41.9306 65.5249 42.7335C63.9186 55.8885 52.7304 65.8086 39.5001 65.8086C26.2758 65.8086 15.0881 55.8934 13.4766 42.745C13.3783 41.9423 12.6503 41.3718 11.8495 41.47C11.0495 41.5686 10.4803 42.2997 10.5788 43.1026C12.37 57.7172 24.8032 68.7379 39.4999 68.7379C54.2031 68.7379 66.6371 57.7116 68.4225 43.0895C68.5208 42.2868 67.9516 41.5561 67.1514 41.4577Z" fill="url(#paint2_linear)" fill-opacity="0.1"/>
<path d="M60.1136 33.454C59.7425 32.3083 58.7276 31.54 57.5276 31.4968L46.0818 31.0849L42.1543 20.2896C41.7427 19.158 40.7009 18.4267 39.5003 18.4267C38.2996 18.4267 37.2579 19.158 36.8462 20.2896L32.9187 31.0849L21.4729 31.4968C20.2731 31.54 19.258 32.3083 18.887 33.454C18.516 34.5997 18.887 35.82 19.8324 36.5626L28.8508 43.6464L25.7045 54.6963C25.3745 55.8547 25.7891 57.0608 26.7607 57.769C27.731 58.4764 29.0023 58.5006 29.9991 57.8272L39.5001 51.4098L49.0012 57.8268C49.9969 58.4995 51.2682 58.4768 52.2397 57.7686C53.2112 57.0606 53.6256 55.8545 53.2957 54.696L50.1493 43.6462L59.1677 36.5624C60.1134 35.8198 60.4846 34.5997 60.1136 33.454ZM48.3001 41.3786C47.3901 42.0934 47.0072 43.2757 47.3249 44.3901L50.4179 55.2524L41.0781 48.9444C40.5987 48.6206 40.0494 48.4587 39.5001 48.4587C38.9508 48.4587 38.4014 48.6206 37.9222 48.9442L28.5822 55.2522L31.6752 44.3901C31.9927 43.2753 31.61 42.0934 30.7002 41.3786L21.8346 34.415L33.0865 34.0099C34.2411 33.9683 35.2432 33.2376 35.6393 32.1487L39.5003 21.5367L43.3612 32.1487C43.7575 33.2376 44.7594 33.9683 45.9141 34.0097L57.1655 34.4148L48.3001 41.3786Z" fill="#1BABEA"/>
<path d="M60.1136 33.454C59.7425 32.3083 58.7276 31.54 57.5276 31.4968L46.0818 31.0849L42.1543 20.2896C41.7427 19.158 40.7009 18.4267 39.5003 18.4267C38.2996 18.4267 37.2579 19.158 36.8462 20.2896L32.9187 31.0849L21.4729 31.4968C20.2731 31.54 19.258 32.3083 18.887 33.454C18.516 34.5997 18.887 35.82 19.8324 36.5626L28.8508 43.6464L25.7045 54.6963C25.3745 55.8547 25.7891 57.0608 26.7607 57.769C27.731 58.4764 29.0023 58.5006 29.9991 57.8272L39.5001 51.4098L49.0012 57.8268C49.9969 58.4995 51.2682 58.4768 52.2397 57.7686C53.2112 57.0606 53.6256 55.8545 53.2957 54.696L50.1493 43.6462L59.1677 36.5624C60.1134 35.8198 60.4846 34.5997 60.1136 33.454ZM48.3001 41.3786C47.3901 42.0934 47.0072 43.2757 47.3249 44.3901L50.4179 55.2524L41.0781 48.9444C40.5987 48.6206 40.0494 48.4587 39.5001 48.4587C38.9508 48.4587 38.4014 48.6206 37.9222 48.9442L28.5822 55.2522L31.6752 44.3901C31.9927 43.2753 31.61 42.0934 30.7002 41.3786L21.8346 34.415L33.0865 34.0099C34.2411 33.9683 35.2432 33.2376 35.6393 32.1487L39.5003 21.5367L43.3612 32.1487C43.7575 33.2376 44.7594 33.9683 45.9141 34.0097L57.1655 34.4148L48.3001 41.3786Z" fill="url(#paint3_linear)" fill-opacity="0.1"/>
<defs>
<linearGradient id="paint0_linear" x1="39.3584" y1="0.000976563" x2="39.3584" y2="100.001" gradientUnits="userSpaceOnUse">
<stop stop-color="white"/>
<stop offset="1" stop-color="white" stop-opacity="0"/>
</linearGradient>
<linearGradient id="paint1_linear" x1="39.3584" y1="0.000976563" x2="39.3584" y2="100.001" gradientUnits="userSpaceOnUse">
<stop stop-color="white"/>
<stop offset="1" stop-color="white" stop-opacity="0"/>
</linearGradient>
<linearGradient id="paint2_linear" x1="39.3584" y1="0.000976563" x2="39.3584" y2="100.001" gradientUnits="userSpaceOnUse">
<stop stop-color="white"/>
<stop offset="1" stop-color="white" stop-opacity="0"/>
</linearGradient>
<linearGradient id="paint3_linear" x1="39.3584" y1="0.000976563" x2="39.3584" y2="100.001" gradientUnits="userSpaceOnUse">
<stop stop-color="white"/>
<stop offset="1" stop-color="white" stop-opacity="0"/>
</linearGradient>
</defs>
</svg>
