<svg width="25" height="25" viewBox="0 0 25 25" fill="none" xmlns="http://www.w3.org/2000/svg">
<path d="M3.39917 3.07246C1.41785 4.983 0.299126 7.55073 0.249071 10.3026C0.199016 13.0546 1.22362 15.6613 3.13416 17.6426C5.04465 19.6238 7.61236 20.7426 10.3642 20.7927C12.8802 20.8384 15.2744 19.9854 17.1807 18.3788L22.7984 24.2046C23.0682 24.4844 23.5138 24.4925 23.7937 24.2227C23.9335 24.0878 24.0056 23.9089 24.0088 23.7288C24.0121 23.5488 23.9467 23.3674 23.8117 23.2275L18.1941 17.4017C19.8689 15.5551 20.8085 13.1934 20.8543 10.6774C20.9043 7.92548 19.8797 5.31885 17.9692 3.33752C16.0587 1.35624 13.491 0.237513 10.7391 0.187458C7.98715 0.137404 5.38045 1.16197 3.39917 3.07246ZM16.9558 4.31465C20.3609 7.84597 20.2583 13.489 16.727 16.8942C13.1958 20.2993 7.55263 20.1967 4.14753 16.6654C2.4448 14.8996 1.61937 12.6064 1.66081 10.3283C1.70223 8.05071 2.61095 5.78816 4.37635 4.08579C7.90756 0.680781 13.5507 0.783424 16.9558 4.31465Z" fill="#632316"/>
</svg>
