<svg width="75" height="100" viewBox="0 0 75 100" fill="none" xmlns="http://www.w3.org/2000/svg">
<path d="M72.7503 35.3715C73.5612 35.3715 74.2187 34.7159 74.2187 33.9067V17.4506C74.2187 16.7141 73.7826 16.0455 73.1074 15.7463L37.8675 0.159741C37.3855 -0.0539307 36.833 -0.0537354 36.3519 0.159351L1.11068 15.7465C0.435814 16.0453 0 16.7141 0 17.4506V47.8784C0 59.2512 3.44168 70.197 9.95266 79.5323C16.4636 88.8677 25.5554 95.8917 36.2448 99.8449C36.8022 100.051 37.4166 100.051 37.9742 99.8447C48.6636 95.8915 57.7552 88.8675 64.2662 79.5321C70.7772 70.1968 74.2189 59.251 74.2189 47.8784V40.7428C74.2189 39.9336 73.5614 39.278 72.7505 39.278C71.9395 39.278 71.2821 39.9336 71.2821 40.7428V47.8784C71.2821 69.6683 57.5555 89.4032 37.1096 97.0398C16.6616 89.4044 2.93656 69.6696 2.93656 47.8784V18.1436L37.1092 3.02908L71.2819 18.1436V33.9067C71.2819 34.7159 71.9393 35.3715 72.7503 35.3715Z" fill="#1BABEA"/>
<path d="M72.7503 35.3715C73.5612 35.3715 74.2187 34.7159 74.2187 33.9067V17.4506C74.2187 16.7141 73.7826 16.0455 73.1074 15.7463L37.8675 0.159741C37.3855 -0.0539307 36.833 -0.0537354 36.3519 0.159351L1.11068 15.7465C0.435814 16.0453 0 16.7141 0 17.4506V47.8784C0 59.2512 3.44168 70.197 9.95266 79.5323C16.4636 88.8677 25.5554 95.8917 36.2448 99.8449C36.8022 100.051 37.4166 100.051 37.9742 99.8447C48.6636 95.8915 57.7552 88.8675 64.2662 79.5321C70.7772 70.1968 74.2189 59.251 74.2189 47.8784V40.7428C74.2189 39.9336 73.5614 39.278 72.7505 39.278C71.9395 39.278 71.2821 39.9336 71.2821 40.7428V47.8784C71.2821 69.6683 57.5555 89.4032 37.1096 97.0398C16.6616 89.4044 2.93656 69.6696 2.93656 47.8784V18.1436L37.1092 3.02908L71.2819 18.1436V33.9067C71.2819 34.7159 71.9393 35.3715 72.7503 35.3715Z" fill="url(#paint0_linear)" fill-opacity="0.1"/>
<path d="M44.5962 49.0358C45.1696 49.6077 46.0994 49.6077 46.6727 49.0358L51.5818 44.1385C52.4904 43.2319 52.4904 41.7571 51.5818 40.8506L47.6083 36.8864C46.6997 35.9799 45.2213 35.9801 44.3125 36.8864L33.4373 47.7356L28.6236 42.9332C27.7149 42.0268 26.2364 42.0266 25.3278 42.9332L21.3539 46.8975C20.4455 47.8042 20.4457 49.279 21.3541 50.1854L31.7894 60.5956C32.6984 61.5022 34.1764 61.5016 35.0852 60.5956L41.7415 53.9553C42.3149 53.3831 42.3149 52.4557 41.7415 51.8836C41.168 51.3118 40.2382 51.3118 39.665 51.8836L33.4373 58.0965L23.8594 48.5415L26.9757 45.4327L31.7894 50.235C32.6982 51.1417 34.1766 51.1409 35.0852 50.235L45.9602 39.3858L49.0765 42.4946L44.596 46.9643C44.0226 47.5364 44.0225 48.4637 44.5962 49.0358Z" fill="#1BABEA"/>
<path d="M44.5962 49.0358C45.1696 49.6077 46.0994 49.6077 46.6727 49.0358L51.5818 44.1385C52.4904 43.2319 52.4904 41.7571 51.5818 40.8506L47.6083 36.8864C46.6997 35.9799 45.2213 35.9801 44.3125 36.8864L33.4373 47.7356L28.6236 42.9332C27.7149 42.0268 26.2364 42.0266 25.3278 42.9332L21.3539 46.8975C20.4455 47.8042 20.4457 49.279 21.3541 50.1854L31.7894 60.5956C32.6984 61.5022 34.1764 61.5016 35.0852 60.5956L41.7415 53.9553C42.3149 53.3831 42.3149 52.4557 41.7415 51.8836C41.168 51.3118 40.2382 51.3118 39.665 51.8836L33.4373 58.0965L23.8594 48.5415L26.9757 45.4327L31.7894 50.235C32.6982 51.1417 34.1766 51.1409 35.0852 50.235L45.9602 39.3858L49.0765 42.4946L44.596 46.9643C44.0226 47.5364 44.0225 48.4637 44.5962 49.0358Z" fill="url(#paint1_linear)" fill-opacity="0.1"/>
<path d="M37.1092 94.0769C37.9202 94.0769 38.5776 93.4212 38.5776 92.612V71.521C50.8918 70.7622 60.6775 60.5272 60.6775 48.0549C60.6775 35.5826 50.892 25.3473 38.5776 24.5885V7.35799C38.5776 6.54881 37.9202 5.89315 37.1092 5.89315C36.2983 5.89315 35.6409 6.54881 35.6409 7.35799V24.5895C32.3625 24.7944 29.1401 25.6819 26.2417 27.1869C25.5224 27.5604 25.2426 28.4449 25.6171 29.1625C25.9918 29.8805 26.8786 30.1594 27.5977 29.7854C30.1188 28.4762 32.8182 27.7178 35.6409 27.5233V34.5696C35.6409 35.3787 36.2983 36.0344 37.1092 36.0344C37.9202 36.0344 38.5776 35.3787 38.5776 34.5696V27.5244C49.2713 28.2781 57.7407 37.1983 57.7407 48.0547C57.7407 58.911 49.2713 67.8311 38.5776 68.5849V65.0792C38.5776 64.27 37.9202 63.6143 37.1092 63.6143C36.2983 63.6143 35.6409 64.27 35.6409 65.0792V68.5849C24.9471 67.8311 16.4777 58.911 16.4777 48.0547C16.4777 42.6287 18.576 37.5082 22.3859 33.6365C22.9541 33.0592 22.9455 32.1319 22.3667 31.5653C21.788 30.9985 20.8582 31.0071 20.2902 31.5844C15.938 36.0073 13.541 41.8565 13.541 48.0549C13.541 60.5272 23.3266 70.7624 35.6409 71.521V92.6118C35.6409 93.421 36.2983 94.0769 37.1092 94.0769Z" fill="#1BABEA"/>
<path d="M37.1092 94.0769C37.9202 94.0769 38.5776 93.4212 38.5776 92.612V71.521C50.8918 70.7622 60.6775 60.5272 60.6775 48.0549C60.6775 35.5826 50.892 25.3473 38.5776 24.5885V7.35799C38.5776 6.54881 37.9202 5.89315 37.1092 5.89315C36.2983 5.89315 35.6409 6.54881 35.6409 7.35799V24.5895C32.3625 24.7944 29.1401 25.6819 26.2417 27.1869C25.5224 27.5604 25.2426 28.4449 25.6171 29.1625C25.9918 29.8805 26.8786 30.1594 27.5977 29.7854C30.1188 28.4762 32.8182 27.7178 35.6409 27.5233V34.5696C35.6409 35.3787 36.2983 36.0344 37.1092 36.0344C37.9202 36.0344 38.5776 35.3787 38.5776 34.5696V27.5244C49.2713 28.2781 57.7407 37.1983 57.7407 48.0547C57.7407 58.911 49.2713 67.8311 38.5776 68.5849V65.0792C38.5776 64.27 37.9202 63.6143 37.1092 63.6143C36.2983 63.6143 35.6409 64.27 35.6409 65.0792V68.5849C24.9471 67.8311 16.4777 58.911 16.4777 48.0547C16.4777 42.6287 18.576 37.5082 22.3859 33.6365C22.9541 33.0592 22.9455 32.1319 22.3667 31.5653C21.788 30.9985 20.8582 31.0071 20.2902 31.5844C15.938 36.0073 13.541 41.8565 13.541 48.0549C13.541 60.5272 23.3266 70.7624 35.6409 71.521V92.6118C35.6409 93.421 36.2983 94.0769 37.1092 94.0769Z" fill="url(#paint2_linear)" fill-opacity="0.1"/>
<defs>
<linearGradient id="paint0_linear" x1="36.9764" y1="-0.000488281" x2="36.9764" y2="99.9995" gradientUnits="userSpaceOnUse">
<stop stop-color="white"/>
<stop offset="1" stop-color="white" stop-opacity="0"/>
</linearGradient>
<linearGradient id="paint1_linear" x1="36.9764" y1="-0.000488281" x2="36.9764" y2="99.9995" gradientUnits="userSpaceOnUse">
<stop stop-color="white"/>
<stop offset="1" stop-color="white" stop-opacity="0"/>
</linearGradient>
<linearGradient id="paint2_linear" x1="36.9764" y1="-0.000488281" x2="36.9764" y2="99.9995" gradientUnits="userSpaceOnUse">
<stop stop-color="white"/>
<stop offset="1" stop-color="white" stop-opacity="0"/>
</linearGradient>
</defs>
</svg>
