<svg width="27" height="27" viewBox="0 0 27 27" fill="none" xmlns="http://www.w3.org/2000/svg">
<path d="M14.4157 17.9912C13.9578 17.5885 13.213 17.6492 12.8103 18.1071L8.5621 22.8959V3.75717C8.5621 3.12823 8.04349 2.60962 7.41454 2.60962C6.78559 2.60962 6.26699 3.12823 6.26699 3.75717V22.8959L2.01883 18.1071C1.56092 17.6492 0.87128 17.5885 0.413362 17.9912C-0.0445561 18.4492 -0.105244 19.1388 0.297503 19.5967L6.55388 26.5979C7.02283 27.1772 7.85039 27.0889 8.22004 26.5979L14.5316 19.5967C14.9343 19.1443 14.8792 18.394 14.4157 17.9912Z" fill="#632316"/>
<path d="M26.7025 7.4316L20.5013 0.430422C19.9496 -0.126803 19.2599 -0.159906 18.7799 0.430422L12.4684 7.4316C12.0657 7.88952 12.1263 8.63433 12.5843 9.03707C13.2904 9.59982 14.0022 9.21362 14.1897 8.92121L18.4379 4.13239V23.216C18.4379 23.8449 18.9565 24.3635 19.5854 24.3635C20.2144 24.3635 20.733 23.9056 20.733 23.2711V4.1379L24.9812 8.92673C25.4391 9.38465 26.1287 9.44534 26.5866 9.04259C27.0445 8.57915 27.1052 7.88952 26.7025 7.4316Z" fill="#632316"/>
</svg>
