<svg width="94" height="100" viewBox="0 0 94 100" fill="none" xmlns="http://www.w3.org/2000/svg">
<path d="M49.7218 63.2982C51.4563 63.1632 53.0376 62.2784 54.064 60.8671L69.6648 39.2995C70.143 38.6381 70.0714 37.725 69.4915 37.1451C68.9117 36.5669 67.9986 36.4953 67.3371 36.9718L45.7662 52.5777C44.3599 53.6007 43.4751 55.182 43.3401 56.9165C43.2052 58.6511 43.8333 60.349 45.0614 61.577C46.1794 62.6967 47.6873 63.3165 49.2552 63.3165C49.4102 63.3165 49.5652 63.3098 49.7218 63.2982ZM46.6626 57.1765C46.7209 56.415 47.1108 55.7202 47.724 55.2736L60.8821 45.7545L51.3663 58.9093C50.9165 59.5275 50.2216 59.9157 49.4602 59.9757C48.702 60.0257 47.9572 59.7624 47.4157 59.2209C46.8792 58.6827 46.6026 57.9363 46.6626 57.1765Z" fill="#1BABEA"/>
<path d="M49.7218 63.2982C51.4563 63.1632 53.0376 62.2784 54.064 60.8671L69.6648 39.2995C70.143 38.6381 70.0714 37.725 69.4915 37.1451C68.9117 36.5669 67.9986 36.4953 67.3371 36.9718L45.7662 52.5777C44.3599 53.6007 43.4751 55.182 43.3401 56.9165C43.2052 58.6511 43.8333 60.349 45.0614 61.577C46.1794 62.6967 47.6873 63.3165 49.2552 63.3165C49.4102 63.3165 49.5652 63.3098 49.7218 63.2982ZM46.6626 57.1765C46.7209 56.415 47.1108 55.7202 47.724 55.2736L60.8821 45.7545L51.3663 58.9093C50.9165 59.5275 50.2216 59.9157 49.4602 59.9757C48.702 60.0257 47.9572 59.7624 47.4157 59.2209C46.8792 58.6827 46.6026 57.9363 46.6626 57.1765Z" fill="url(#paint0_linear)" fill-opacity="0.1"/>
<path d="M87.0452 32.598C87.0285 32.563 87.0285 32.5263 87.0102 32.4914C86.9902 32.458 86.9585 32.4397 86.9369 32.4081C85.2523 29.5188 83.2595 26.8312 80.9968 24.3952L84.5758 20.8178L86.9319 23.1738L94 16.104L86.9319 9.03593L79.8621 16.104L82.2198 18.4618L78.6408 22.0391C76.2047 19.7764 73.5188 17.7819 70.6279 16.0974C70.5962 16.0757 70.5779 16.0441 70.5446 16.0241C70.5096 16.0041 70.4729 16.0057 70.4379 15.9874C65.2843 13.0182 59.4942 11.0404 53.3208 10.3156V8.33112H55.8202C58.1179 8.33112 59.9857 6.46328 59.9857 4.16556C59.9857 1.86784 58.1162 0 55.8185 0H40.8225C38.5248 0 36.6569 1.86784 36.6569 4.16556C36.6569 6.46328 38.5248 8.33112 40.8225 8.33112H43.3218V10.2573C41.5223 10.4489 39.7261 10.7421 37.9499 11.1487C37.0535 11.3536 36.492 12.2484 36.6986 13.1448C36.9035 14.0413 37.7983 14.6045 38.6947 14.3962C40.2276 14.0446 41.7756 13.7797 43.3268 13.6014L45.1147 13.4631C45.6612 13.4214 46.1644 13.3914 46.6543 13.3681V16.6622C46.6543 17.5837 47.3991 18.3285 48.3205 18.3285C49.2419 18.3285 49.9867 17.5837 49.9867 16.6622V13.3798C56.2534 13.668 62.1585 15.3509 67.4087 18.1202L65.7658 20.9644C65.306 21.7625 65.5792 22.7806 66.3757 23.2405C66.6373 23.3921 66.9239 23.4638 67.2071 23.4638C67.7836 23.4638 68.3435 23.1655 68.6517 22.6306L70.2896 19.7931C75.5033 23.1005 79.9321 27.5293 83.2395 32.743L80.402 34.3809C79.6072 34.8407 79.3339 35.8588 79.7954 36.6569C80.1054 37.1918 80.6635 37.49 81.2401 37.49C81.5233 37.49 81.8099 37.4184 82.0715 37.2668L84.9157 35.6239C87.7233 40.9491 89.4112 46.9508 89.6628 53.3175H86.372C85.4506 53.3175 84.7058 54.0623 84.7058 54.9837C84.7058 55.9051 85.4506 56.6499 86.372 56.6499H89.6628C89.4112 63.0166 87.7233 69.0183 84.9157 74.3436L82.0715 72.7007C81.2751 72.2408 80.2553 72.5107 79.7954 73.3105C79.3356 74.1086 79.6088 75.1267 80.4053 75.5866L83.2429 77.2245C79.9354 82.4381 75.5066 86.8669 70.293 90.1743L68.6551 87.3368C68.1935 86.537 67.1721 86.2654 66.379 86.7269C65.5809 87.1868 65.3076 88.2065 65.7692 89.003L67.4121 91.8472C62.1618 94.6165 56.2567 96.2994 49.99 96.5876V93.3085C49.99 92.3871 49.2452 91.6423 48.3238 91.6423C47.4024 91.6423 46.6576 92.3871 46.6576 93.3085V96.601C43.9966 96.5093 41.3273 96.1761 38.6997 95.5729C37.8033 95.358 36.9085 95.9278 36.7036 96.8242C36.497 97.7207 37.0585 98.6154 37.9549 98.8204C41.2807 99.5868 44.6781 99.9734 48.0489 99.9734C48.1305 99.9734 48.2088 99.9684 48.2905 99.9667C48.3022 99.9667 48.3105 99.9734 48.3205 99.9734C48.3338 99.9734 48.3455 99.9651 48.3588 99.9651C56.3683 99.9101 63.883 97.7473 70.3846 94.0117C70.4363 93.9883 70.4913 93.9767 70.5412 93.9467C70.5746 93.9267 70.5929 93.895 70.6245 93.8734C77.3544 89.9511 82.9779 84.3342 86.9086 77.6094C86.9402 77.5644 86.9802 77.5294 87.0085 77.4794C87.0285 77.4444 87.0269 77.4077 87.0435 77.3728C90.8492 70.7745 93.0369 63.1332 93.0369 54.9854C93.0369 46.8375 90.8492 39.1962 87.0452 32.598ZM86.9302 13.748L89.2863 16.104L86.9302 18.4618L84.5725 16.104L86.9302 13.748ZM46.6543 10.0323V4.99867H40.8225C40.3643 4.99867 39.9894 4.62377 39.9894 4.16556C39.9894 3.70735 40.3643 3.33245 40.8225 3.33245H55.8185C56.2767 3.33245 56.6516 3.70735 56.6516 4.16556C56.6516 4.62377 56.2767 4.99867 55.8185 4.99867H49.9867V10.0323C49.4069 10.009 48.8537 9.99734 48.3205 9.99734C48.2738 9.99734 48.2205 10.0007 48.1739 10.0007C48.1322 10.0007 48.0905 9.99734 48.0489 9.99734C47.7756 9.99734 47.5024 10.0157 47.2291 10.0207C47.0358 10.0257 46.8542 10.024 46.6543 10.0323Z" fill="#1BABEA"/>
<path d="M87.0452 32.598C87.0285 32.563 87.0285 32.5263 87.0102 32.4914C86.9902 32.458 86.9585 32.4397 86.9369 32.4081C85.2523 29.5188 83.2595 26.8312 80.9968 24.3952L84.5758 20.8178L86.9319 23.1738L94 16.104L86.9319 9.03593L79.8621 16.104L82.2198 18.4618L78.6408 22.0391C76.2047 19.7764 73.5188 17.7819 70.6279 16.0974C70.5962 16.0757 70.5779 16.0441 70.5446 16.0241C70.5096 16.0041 70.4729 16.0057 70.4379 15.9874C65.2843 13.0182 59.4942 11.0404 53.3208 10.3156V8.33112H55.8202C58.1179 8.33112 59.9857 6.46328 59.9857 4.16556C59.9857 1.86784 58.1162 0 55.8185 0H40.8225C38.5248 0 36.6569 1.86784 36.6569 4.16556C36.6569 6.46328 38.5248 8.33112 40.8225 8.33112H43.3218V10.2573C41.5223 10.4489 39.7261 10.7421 37.9499 11.1487C37.0535 11.3536 36.492 12.2484 36.6986 13.1448C36.9035 14.0413 37.7983 14.6045 38.6947 14.3962C40.2276 14.0446 41.7756 13.7797 43.3268 13.6014L45.1147 13.4631C45.6612 13.4214 46.1644 13.3914 46.6543 13.3681V16.6622C46.6543 17.5837 47.3991 18.3285 48.3205 18.3285C49.2419 18.3285 49.9867 17.5837 49.9867 16.6622V13.3798C56.2534 13.668 62.1585 15.3509 67.4087 18.1202L65.7658 20.9644C65.306 21.7625 65.5792 22.7806 66.3757 23.2405C66.6373 23.3921 66.9239 23.4638 67.2071 23.4638C67.7836 23.4638 68.3435 23.1655 68.6517 22.6306L70.2896 19.7931C75.5033 23.1005 79.9321 27.5293 83.2395 32.743L80.402 34.3809C79.6072 34.8407 79.3339 35.8588 79.7954 36.6569C80.1054 37.1918 80.6635 37.49 81.2401 37.49C81.5233 37.49 81.8099 37.4184 82.0715 37.2668L84.9157 35.6239C87.7233 40.9491 89.4112 46.9508 89.6628 53.3175H86.372C85.4506 53.3175 84.7058 54.0623 84.7058 54.9837C84.7058 55.9051 85.4506 56.6499 86.372 56.6499H89.6628C89.4112 63.0166 87.7233 69.0183 84.9157 74.3436L82.0715 72.7007C81.2751 72.2408 80.2553 72.5107 79.7954 73.3105C79.3356 74.1086 79.6088 75.1267 80.4053 75.5866L83.2429 77.2245C79.9354 82.4381 75.5066 86.8669 70.293 90.1743L68.6551 87.3368C68.1935 86.537 67.1721 86.2654 66.379 86.7269C65.5809 87.1868 65.3076 88.2065 65.7692 89.003L67.4121 91.8472C62.1618 94.6165 56.2567 96.2994 49.99 96.5876V93.3085C49.99 92.3871 49.2452 91.6423 48.3238 91.6423C47.4024 91.6423 46.6576 92.3871 46.6576 93.3085V96.601C43.9966 96.5093 41.3273 96.1761 38.6997 95.5729C37.8033 95.358 36.9085 95.9278 36.7036 96.8242C36.497 97.7207 37.0585 98.6154 37.9549 98.8204C41.2807 99.5868 44.6781 99.9734 48.0489 99.9734C48.1305 99.9734 48.2088 99.9684 48.2905 99.9667C48.3022 99.9667 48.3105 99.9734 48.3205 99.9734C48.3338 99.9734 48.3455 99.9651 48.3588 99.9651C56.3683 99.9101 63.883 97.7473 70.3846 94.0117C70.4363 93.9883 70.4913 93.9767 70.5412 93.9467C70.5746 93.9267 70.5929 93.895 70.6245 93.8734C77.3544 89.9511 82.9779 84.3342 86.9086 77.6094C86.9402 77.5644 86.9802 77.5294 87.0085 77.4794C87.0285 77.4444 87.0269 77.4077 87.0435 77.3728C90.8492 70.7745 93.0369 63.1332 93.0369 54.9854C93.0369 46.8375 90.8492 39.1962 87.0452 32.598ZM86.9302 13.748L89.2863 16.104L86.9302 18.4618L84.5725 16.104L86.9302 13.748ZM46.6543 10.0323V4.99867H40.8225C40.3643 4.99867 39.9894 4.62377 39.9894 4.16556C39.9894 3.70735 40.3643 3.33245 40.8225 3.33245H55.8185C56.2767 3.33245 56.6516 3.70735 56.6516 4.16556C56.6516 4.62377 56.2767 4.99867 55.8185 4.99867H49.9867V10.0323C49.4069 10.009 48.8537 9.99734 48.3205 9.99734C48.2738 9.99734 48.2205 10.0007 48.1739 10.0007C48.1322 10.0007 48.0905 9.99734 48.0489 9.99734C47.7756 9.99734 47.5024 10.0157 47.2291 10.0207C47.0358 10.0257 46.8542 10.024 46.6543 10.0323Z" fill="url(#paint1_linear)" fill-opacity="0.1"/>
<path d="M33.3245 23.3271H24.9934C24.0719 23.3271 23.3271 24.0719 23.3271 24.9934C23.3271 25.9148 24.0719 26.6596 24.9934 26.6596H33.3245C34.2459 26.6596 34.9907 25.9148 34.9907 24.9934C34.9907 24.0719 34.2459 23.3271 33.3245 23.3271Z" fill="#1BABEA"/>
<path d="M33.3245 23.3271H24.9934C24.0719 23.3271 23.3271 24.0719 23.3271 24.9934C23.3271 25.9148 24.0719 26.6596 24.9934 26.6596H33.3245C34.2459 26.6596 34.9907 25.9148 34.9907 24.9934C34.9907 24.0719 34.2459 23.3271 33.3245 23.3271Z" fill="url(#paint2_linear)" fill-opacity="0.1"/>
<path d="M33.3245 34.9907H16.6622C15.7408 34.9907 14.996 35.7355 14.996 36.6569C14.996 37.5783 15.7408 38.3231 16.6622 38.3231H33.3245C34.2459 38.3231 34.9907 37.5783 34.9907 36.6569C34.9907 35.7355 34.2459 34.9907 33.3245 34.9907Z" fill="#1BABEA"/>
<path d="M33.3245 34.9907H16.6622C15.7408 34.9907 14.996 35.7355 14.996 36.6569C14.996 37.5783 15.7408 38.3231 16.6622 38.3231H33.3245C34.2459 38.3231 34.9907 37.5783 34.9907 36.6569C34.9907 35.7355 34.2459 34.9907 33.3245 34.9907Z" fill="url(#paint3_linear)" fill-opacity="0.1"/>
<path d="M33.3245 46.6543H8.33112C7.4097 46.6543 6.66489 47.3991 6.66489 48.3205C6.66489 49.2419 7.4097 49.9867 8.33112 49.9867H33.3245C34.2459 49.9867 34.9907 49.2419 34.9907 48.3205C34.9907 47.3991 34.2459 46.6543 33.3245 46.6543Z" fill="#1BABEA"/>
<path d="M33.3245 46.6543H8.33112C7.4097 46.6543 6.66489 47.3991 6.66489 48.3205C6.66489 49.2419 7.4097 49.9867 8.33112 49.9867H33.3245C34.2459 49.9867 34.9907 49.2419 34.9907 48.3205C34.9907 47.3991 34.2459 46.6543 33.3245 46.6543Z" fill="url(#paint4_linear)" fill-opacity="0.1"/>
<path d="M33.3245 58.3178H1.66622C0.744802 58.3178 0 59.0626 0 59.984C0 60.9055 0.744802 61.6503 1.66622 61.6503H33.3245C34.2459 61.6503 34.9907 60.9055 34.9907 59.984C34.9907 59.0626 34.2459 58.3178 33.3245 58.3178Z" fill="#1BABEA"/>
<path d="M33.3245 58.3178H1.66622C0.744802 58.3178 0 59.0626 0 59.984C0 60.9055 0.744802 61.6503 1.66622 61.6503H33.3245C34.2459 61.6503 34.9907 60.9055 34.9907 59.984C34.9907 59.0626 34.2459 58.3178 33.3245 58.3178Z" fill="url(#paint5_linear)" fill-opacity="0.1"/>
<path d="M33.3245 69.9814H11.6636C10.7421 69.9814 9.99734 70.7262 9.99734 71.6476C9.99734 72.569 10.7421 73.3138 11.6636 73.3138H33.3245C34.2459 73.3138 34.9907 72.569 34.9907 71.6476C34.9907 70.7262 34.2459 69.9814 33.3245 69.9814Z" fill="#1BABEA"/>
<path d="M33.3245 69.9814H11.6636C10.7421 69.9814 9.99734 70.7262 9.99734 71.6476C9.99734 72.569 10.7421 73.3138 11.6636 73.3138H33.3245C34.2459 73.3138 34.9907 72.569 34.9907 71.6476C34.9907 70.7262 34.2459 69.9814 33.3245 69.9814Z" fill="url(#paint6_linear)" fill-opacity="0.1"/>
<path d="M33.3245 81.645H21.6609C20.7395 81.645 19.9947 82.3898 19.9947 83.3112C19.9947 84.2326 20.7395 84.9774 21.6609 84.9774H33.3245C34.2459 84.9774 34.9907 84.2326 34.9907 83.3112C34.9907 82.3898 34.2459 81.645 33.3245 81.645Z" fill="#1BABEA"/>
<path d="M33.3245 81.645H21.6609C20.7395 81.645 19.9947 82.3898 19.9947 83.3112C19.9947 84.2326 20.7395 84.9774 21.6609 84.9774H33.3245C34.2459 84.9774 34.9907 84.2326 34.9907 83.3112C34.9907 82.3898 34.2459 81.645 33.3245 81.645Z" fill="url(#paint7_linear)" fill-opacity="0.1"/>
<defs>
<linearGradient id="paint0_linear" x1="46.8315" y1="0" x2="46.8315" y2="99.9734" gradientUnits="userSpaceOnUse">
<stop stop-color="white"/>
<stop offset="1" stop-color="white" stop-opacity="0"/>
</linearGradient>
<linearGradient id="paint1_linear" x1="46.8315" y1="0" x2="46.8315" y2="99.9734" gradientUnits="userSpaceOnUse">
<stop stop-color="white"/>
<stop offset="1" stop-color="white" stop-opacity="0"/>
</linearGradient>
<linearGradient id="paint2_linear" x1="46.8315" y1="0" x2="46.8315" y2="99.9734" gradientUnits="userSpaceOnUse">
<stop stop-color="white"/>
<stop offset="1" stop-color="white" stop-opacity="0"/>
</linearGradient>
<linearGradient id="paint3_linear" x1="46.8315" y1="0" x2="46.8315" y2="99.9734" gradientUnits="userSpaceOnUse">
<stop stop-color="white"/>
<stop offset="1" stop-color="white" stop-opacity="0"/>
</linearGradient>
<linearGradient id="paint4_linear" x1="46.8315" y1="0" x2="46.8315" y2="99.9734" gradientUnits="userSpaceOnUse">
<stop stop-color="white"/>
<stop offset="1" stop-color="white" stop-opacity="0"/>
</linearGradient>
<linearGradient id="paint5_linear" x1="46.8315" y1="0" x2="46.8315" y2="99.9734" gradientUnits="userSpaceOnUse">
<stop stop-color="white"/>
<stop offset="1" stop-color="white" stop-opacity="0"/>
</linearGradient>
<linearGradient id="paint6_linear" x1="46.8315" y1="0" x2="46.8315" y2="99.9734" gradientUnits="userSpaceOnUse">
<stop stop-color="white"/>
<stop offset="1" stop-color="white" stop-opacity="0"/>
</linearGradient>
<linearGradient id="paint7_linear" x1="46.8315" y1="0" x2="46.8315" y2="99.9734" gradientUnits="userSpaceOnUse">
<stop stop-color="white"/>
<stop offset="1" stop-color="white" stop-opacity="0"/>
</linearGradient>
</defs>
</svg>
