<svg width="50" height="17" viewBox="0 0 50 17" fill="none" xmlns="http://www.w3.org/2000/svg">
<path d="M46.6596 0.915039H43.5362C42.592 0.915039 41.8656 1.21247 41.4298 2.17914L35.4736 16.0843H39.6865C39.6865 16.0843 40.4129 14.2253 40.5581 13.7791C40.994 13.7791 45.1342 13.7791 45.7153 13.7791C45.8606 14.2997 46.2237 16.0099 46.2237 16.0099H50.0008L46.6596 0.915039ZM41.7203 10.6561C42.0835 9.76376 43.3183 6.4176 43.3183 6.4176C43.3183 6.49196 43.6815 5.5253 43.8268 5.00478L44.1173 6.34324C44.1173 6.34324 44.9163 9.98683 45.0616 10.7304H41.7203V10.6561Z" fill="#3362AB"/>
<path d="M35.7638 11.1026C35.7638 14.2257 33.0037 16.3078 28.7181 16.3078C26.9022 16.3078 25.159 15.936 24.2147 15.4898L24.7958 12.0693L25.3043 12.2924C26.6117 12.8873 27.4833 13.1103 29.0813 13.1103C30.2435 13.1103 31.4783 12.6642 31.4783 11.6232C31.4783 10.9539 30.9699 10.5078 29.3719 9.76418C27.8465 9.02059 25.8127 7.83084 25.8127 5.67443C25.8127 2.70008 28.6455 0.692383 32.6405 0.692383C34.1658 0.692383 35.4733 0.989819 36.2723 1.36161L35.6912 4.63341L35.4007 4.33597C34.6743 4.03854 33.73 3.7411 32.3499 3.7411C30.8246 3.81546 30.0982 4.48469 30.0982 5.07956C30.0982 5.74879 30.9699 6.26931 32.3499 6.93854C34.6743 8.05392 35.7638 9.31802 35.7638 11.1026Z" fill="#3362AB"/>
<path d="M0.317383 1.06453L0.390019 0.76709H6.63671C7.50834 0.76709 8.16206 1.06453 8.37997 2.03119L9.76005 8.7235C8.37997 5.15427 5.18399 2.25427 0.317383 1.06453Z" fill="#F9B50B"/>
<path d="M18.5491 0.915668L12.2298 16.0105H7.9443L4.3125 3.36951C6.92739 5.07977 9.10647 7.75669 9.90546 9.61567L10.3413 11.1772L14.2636 0.841309H18.5491V0.915668Z" fill="#3362AB"/>
<path d="M20.22 0.841309H24.215L21.6727 16.0105H17.6777L20.22 0.841309Z" fill="#3362AB"/>
</svg>
