<svg width="42" height="43" viewBox="0 0 42 43" fill="none" xmlns="http://www.w3.org/2000/svg">
<path d="M21 0.0234375C9.40241 0.0234375 0 9.42542 0 21.0234C0 32.6215 9.40241 42.0234 21 42.0234C32.5976 42.0234 42 32.6215 42 21.0234C42 9.42542 32.5976 0.0234375 21 0.0234375ZM31.6523 23.2947C32.6311 24.2507 33.6666 25.1504 34.5453 26.2052C34.9345 26.6718 35.3015 27.1544 35.5808 27.697C35.9795 28.4709 35.6194 29.3195 34.9268 29.3654L30.6246 29.3646C29.5134 29.4565 28.6292 29.0084 27.8837 28.2487C27.2886 27.6433 26.7365 26.9967 26.1633 26.3707C25.9291 26.1137 25.6825 25.8718 25.3886 25.6815C24.8021 25.2999 24.2925 25.4168 23.9565 26.0295C23.6141 26.6529 23.5359 27.3438 23.5032 28.0378C23.4564 29.0522 23.1505 29.3173 22.1326 29.365C19.9576 29.4668 17.8939 29.1369 15.9759 28.0403C14.2839 27.0732 12.9742 25.7081 11.833 24.1626C9.6108 21.1498 7.90889 17.843 6.3797 14.4414C6.03554 13.6753 6.28733 13.2654 7.13248 13.2495C8.53663 13.2224 9.94079 13.2258 11.3449 13.2482C11.9164 13.2572 12.2945 13.5842 12.5141 14.1234C13.2729 15.9903 14.2031 17.7666 15.3688 19.4139C15.6794 19.8526 15.9965 20.29 16.4481 20.5998C16.9465 20.9418 17.3263 20.8288 17.5614 20.2724C17.7118 19.9188 17.7766 19.5407 17.8093 19.1617C17.921 17.8637 17.9343 16.5661 17.741 15.2732C17.6207 14.4641 17.1656 13.9417 16.3592 13.7887C15.9484 13.7109 16.0086 13.5588 16.2083 13.3242C16.5551 12.9186 16.8799 12.6677 17.5291 12.6677L22.39 12.6668C23.1561 12.8172 23.3279 13.161 23.4319 13.9326L23.4362 19.3344C23.4272 19.633 23.5862 20.5181 24.1224 20.7136C24.5521 20.8554 24.8356 20.5108 25.0926 20.2389C26.2583 19.0019 27.0888 17.5418 27.8326 16.0307C28.1608 15.3643 28.444 14.6747 28.719 13.9838C28.9235 13.4729 29.2415 13.2215 29.8181 13.2301L34.4989 13.2357C34.6368 13.2357 34.7769 13.237 34.9135 13.2606C35.7024 13.3956 35.9185 13.735 35.6744 14.5045C35.2903 15.7136 34.544 16.7207 33.8144 17.7305C33.0324 18.8115 32.1984 19.8547 31.4242 20.9405C30.7126 21.933 30.7689 22.4327 31.6523 23.2947Z" fill="white"/>
</svg>
