<svg width="39" height="13" viewBox="0 0 39 13" fill="none" xmlns="http://www.w3.org/2000/svg">
<path d="M34.8653 0.737793H27.3838C27.8196 3.266 30.2166 5.64549 32.8315 5.64549H38.7876C38.8603 5.42241 38.8603 5.05061 38.8603 4.82754C38.8603 2.59677 37.0444 0.737793 34.8653 0.737793Z" fill="url(#paint0_linear)"/>
<path d="M28.0376 6.09131V12.2631H31.6694V8.9913H34.8654C36.6086 8.9913 38.134 7.72721 38.6424 6.09131H28.0376Z" fill="#4FAD50"/>
<path d="M15.2535 0.737793V12.1891H18.4495C18.4495 12.1891 19.2485 12.1891 19.6843 11.3711C21.8634 6.98395 22.5171 5.64549 22.5171 5.64549H22.953V12.1891H26.5847V0.737793H23.3888C23.3888 0.737793 22.5898 0.812156 22.154 1.55575C20.3381 5.34805 19.3212 7.28138 19.3212 7.28138H18.8853V0.737793H15.2535Z" fill="#4FAD50"/>
<path d="M0 12.2628V0.811523H3.6318C3.6318 0.811523 4.64871 0.811521 5.22979 2.44742C6.68251 6.76024 6.82779 7.35512 6.82779 7.35512C6.82779 7.35512 7.11832 6.31409 8.42577 2.44742C9.00686 0.811521 10.0238 0.811523 10.0238 0.811523H13.6556V12.2628H10.0238V6.09102H9.58795L7.55415 12.2628H5.95615L3.92236 6.09102H3.48654V12.2628H0Z" fill="#4FAD50"/>
<defs>
<linearGradient id="paint0_linear" x1="27.3709" y1="3.22681" x2="38.8345" y2="3.22681" gradientUnits="userSpaceOnUse">
<stop stop-color="#27B1E6"/>
<stop offset="1" stop-color="#148ACA"/>
</linearGradient>
</defs>
</svg>
