<svg width="26" height="20" viewBox="0 0 26 20" fill="none" xmlns="http://www.w3.org/2000/svg">
<path fill-rule="evenodd" clip-rule="evenodd" d="M0.5 2C0.5 1.17157 1.17157 0.5 2 0.5H24C24.8284 0.5 25.5 1.17157 25.5 2C25.5 2.82843 24.8284 3.5 24 3.5H2C1.17157 3.5 0.5 2.82843 0.5 2ZM0.5 10C0.5 9.17157 1.17157 8.5 2 8.5H24C24.8284 8.5 25.5 9.17157 25.5 10C25.5 10.8284 24.8284 11.5 24 11.5H2C1.17157 11.5 0.5 10.8284 0.5 10ZM0.5 18C0.5 17.1716 1.17157 16.5 2 16.5H24C24.8284 16.5 25.5 17.1716 25.5 18C25.5 18.8284 24.8284 19.5 24 19.5H2C1.17157 19.5 0.5 18.8284 0.5 18Z" fill="white"/>
</svg>
