<svg width="22" height="22" viewBox="0 0 22 22" fill="none" xmlns="http://www.w3.org/2000/svg">
<path fill-rule="evenodd" clip-rule="evenodd" d="M11 2C6.02944 2 2 6.02944 2 11C2 15.9706 6.02944 20 11 20C15.9706 20 20 15.9706 20 11C20 6.02944 15.9706 2 11 2ZM0 11C0 4.92487 4.92487 0 11 0C17.0751 0 22 4.92487 22 11C22 17.0751 17.0751 22 11 22C4.92487 22 0 17.0751 0 11ZM11 4.16667C11.5523 4.16667 12 4.61438 12 5.16667V10H16.8333C17.3856 10 17.8333 10.4477 17.8333 11C17.8333 11.5523 17.3856 12 16.8333 12H11C10.4477 12 10 11.5523 10 11V5.16667C10 4.61438 10.4477 4.16667 11 4.16667Z" fill="#1BABEA"/>
</svg>
