<svg width="26" height="25" viewBox="0 0 26 25" fill="none" xmlns="http://www.w3.org/2000/svg">
<path fill-rule="evenodd" clip-rule="evenodd" d="M0.585786 1.08579C0.960859 0.710714 1.46957 0.5 2 0.5H24C24.5304 0.5 25.0391 0.710715 25.4142 1.08579C25.7893 1.46086 26 1.96956 26 2.5V18.5C26 19.0304 25.7893 19.5391 25.4142 19.9142C25.0391 20.2893 24.5304 20.5 24 20.5L16.5662 20.4999L14.715 23.5853C14.5373 23.8814 14.2859 24.1265 13.9854 24.2967C13.6849 24.4669 13.3454 24.5563 13 24.5563C12.6546 24.5563 12.3151 24.4669 12.0146 24.2967C11.7141 24.1265 11.4627 23.8814 11.285 23.5853L9.43381 20.4999H2C1.46956 20.4999 0.960857 20.2892 0.585786 19.9142C0.210714 19.5391 0 19.0304 0 18.4999V2.5C0 1.96957 0.210714 1.46086 0.585786 1.08579ZM24 2.5L2 2.5V18.4999H9.43381C9.77917 18.4999 10.1187 18.5894 10.4192 18.7595C10.7197 18.9297 10.9711 19.1748 11.1488 19.4709L10.2913 19.9854L11.1488 19.4709L13 22.5563L14.8512 19.471L15.7087 19.9854L14.8512 19.4709C15.0289 19.1748 15.2803 18.9297 15.5808 18.7595C15.8814 18.5894 16.2208 18.4999 16.5662 18.4999L24 18.5V2.5ZM8 8.49994C8 7.94765 8.44772 7.49994 9 7.49994H17C17.5523 7.49994 18 7.94765 18 8.49994C18 9.05222 17.5523 9.49994 17 9.49994H9C8.44772 9.49994 8 9.05222 8 8.49994ZM8 12.4999C8 11.9477 8.44772 11.4999 9 11.4999H17C17.5523 11.4999 18 11.9477 18 12.4999C18 13.0522 17.5523 13.4999 17 13.4999H9C8.44772 13.4999 8 13.0522 8 12.4999Z" fill="#C4C4C4"/>
</svg>
