<svg width="22" height="22" viewBox="0 0 22 22" fill="none" xmlns="http://www.w3.org/2000/svg">
<path fill-rule="evenodd" clip-rule="evenodd" d="M21.7071 11.7071C21.3166 12.0976 20.6834 12.0976 20.2929 11.7071L11 2.41421L1.70711 11.7071C1.31658 12.0976 0.683418 12.0976 0.292892 11.7071C-0.0976319 11.3166 -0.0976319 10.6834 0.292892 10.2929L10.2929 0.292893C10.6834 -0.0976316 11.3166 -0.0976316 11.7071 0.292893L21.7071 10.2929C22.0976 10.6834 22.0976 11.3166 21.7071 11.7071ZM21.7071 21.7071C21.3166 22.0976 20.6834 22.0976 20.2929 21.7071L11 12.4142L1.70711 21.7071C1.31658 22.0976 0.683417 22.0976 0.292892 21.7071C-0.0976324 21.3166 -0.0976324 20.6834 0.292892 20.2929L10.2929 10.2929C10.6834 9.90237 11.3166 9.90237 11.7071 10.2929L21.7071 20.2929C22.0976 20.6834 22.0976 21.3166 21.7071 21.7071Z" fill="white"/>
</svg>
