<svg width="22" height="22" viewBox="0 0 22 22" fill="none" xmlns="http://www.w3.org/2000/svg">
<path fill-rule="evenodd" clip-rule="evenodd" d="M9.72583 0.48016C10.0785 0.168677 10.5328 1.51406e-05 10.9993 1.01932e-09C11.4658 -1.51386e-05 11.9201 0.168617 12.2728 0.480076L21.3644 8.50844C21.5622 8.68315 21.7222 8.89781 21.8324 9.13971C21.9426 9.3817 22 9.64465 22 9.91139V20.117C22 20.3684 21.949 20.6166 21.8506 20.8472C21.7523 21.0778 21.609 21.2853 21.4304 21.4588C21.2518 21.6322 21.0414 21.7683 20.8119 21.8606C20.5824 21.9529 20.3374 22 20.0907 22L14.6355 21.9993C14.1384 21.9992 13.6561 21.8077 13.296 21.4579C12.935 21.1072 12.7266 20.6252 12.7266 20.1163V14.935H9.27206V20.1163C9.27206 20.6252 9.06367 21.1072 8.70263 21.4579C8.34257 21.8077 7.86026 21.9992 7.36321 21.9993L1.90933 22C1.66258 22 1.41759 21.9529 1.1881 21.8606C0.958575 21.7682 0.748163 21.6322 0.569603 21.4588C0.390982 21.2853 0.247689 21.0777 0.14937 20.8472C0.0510221 20.6166 0 20.3684 0 20.117V9.91136C0 9.64463 0.0574266 9.38171 0.167617 9.13973C0.277766 8.89785 0.437732 8.6832 0.635544 8.50849L9.72583 0.48016ZM10.9994 2.02372L2 9.97177V20L7.27206 19.9993V14.818C7.27206 14.3091 7.48048 13.827 7.84158 13.4763C8.20169 13.1265 8.68406 12.935 9.18115 12.935H12.8175C13.3146 12.935 13.797 13.1265 14.1571 13.4763C14.5182 13.827 14.7266 14.3091 14.7266 14.818V19.9993L20 20V9.97181L10.9994 2.02372ZM11.0496 1.97939C11.0496 1.97933 11.0497 1.97928 11.0498 1.97922L10.9994 1.92216L11.0498 1.97922L11.0496 1.97939Z" fill="#C4C4C4"/>
</svg>
