<svg width="22" height="17" viewBox="0 0 22 17" fill="none" xmlns="http://www.w3.org/2000/svg">
<path fill-rule="evenodd" clip-rule="evenodd" d="M0 1C0 0.447715 0.447715 0 1 0H21C21.5523 0 22 0.447715 22 1V15.1667C22 15.6529 21.8068 16.1192 21.463 16.463C21.1192 16.8068 20.6529 17 20.1667 17H1.83333C1.3471 17 0.880789 16.8068 0.536971 16.463C0.193154 16.1192 0 15.6529 0 15.1667V1ZM3.5708 2L9.84297 7.74949C9.85233 7.75775 9.86157 7.76622 9.87069 7.7749L11 8.8101L12.1293 7.77492C12.1384 7.7662 12.1477 7.75767 12.1572 7.74936L18.4292 2H3.5708ZM20 3.27323L14.298 8.50005L20 13.7268V3.27323ZM18.4291 15H3.57106L9.18193 9.85667L10.3243 10.9038C10.7066 11.2543 11.2934 11.2543 11.6757 10.9038L12.8181 9.85662L18.4291 15ZM7.70204 8.50011L2 3.27324V13.727L7.70204 8.50011Z" fill="white"/>
</svg>
