<svg width="18" height="22" viewBox="0 0 18 22" fill="none" xmlns="http://www.w3.org/2000/svg">
<path fill-rule="evenodd" clip-rule="evenodd" d="M9 2C7.13111 2 5.34627 2.71423 4.03625 3.97386C2.72757 5.2322 2 6.93034 2 8.69231C2 11.7799 3.79758 14.6218 5.74169 16.7716C6.69983 17.831 7.66085 18.6861 8.38283 19.2762C8.61746 19.468 8.82601 19.6311 9 19.7634C9.17398 19.6311 9.38254 19.468 9.61717 19.2762C10.3392 18.6861 11.3002 17.831 12.2583 16.7716C14.2024 14.6218 16 11.7799 16 8.69231C16 6.93034 15.2724 5.2322 13.9637 3.97386C12.6537 2.71423 10.8689 2 9 2ZM9 21C8.44162 21.8296 8.44135 21.8294 8.44105 21.8292L8.43823 21.8273L8.43192 21.823L8.41078 21.8086C8.39296 21.7963 8.36775 21.7789 8.33564 21.7563C8.27143 21.7113 8.17959 21.6458 8.06407 21.5609C7.83313 21.3912 7.50692 21.1433 7.11717 20.8248C6.33915 20.1889 5.30017 19.2651 4.25831 18.1131C2.20242 15.8397 0 12.5278 0 8.69231C0 6.37403 0.958135 4.15902 2.65004 2.53219C4.34061 0.906646 6.62543 0 9 0C11.3746 0 13.6594 0.906646 15.35 2.53219C17.0419 4.15902 18 6.37403 18 8.69231C18 12.5278 15.7976 15.8397 13.7417 18.1131C12.6998 19.2651 11.6608 20.1889 10.8828 20.8248C10.4931 21.1433 10.1669 21.3912 9.93593 21.5609C9.82041 21.6458 9.72857 21.7113 9.66436 21.7563C9.63225 21.7789 9.60704 21.7963 9.58922 21.8086L9.56808 21.823L9.56177 21.8273L9.55971 21.8287C9.55941 21.8289 9.55838 21.8296 9 21ZM9 21L9.55838 21.8296C9.2208 22.0568 8.77863 22.0564 8.44105 21.8292L9 21ZM9 6.61538C7.74765 6.61538 6.8 7.58186 6.8 8.69231C6.8 9.80276 7.74765 10.7692 9 10.7692C10.2524 10.7692 11.2 9.80276 11.2 8.69231C11.2 7.58186 10.2524 6.61538 9 6.61538ZM4.8 8.69231C4.8 6.40408 6.71773 4.61538 9 4.61538C11.2823 4.61538 13.2 6.40408 13.2 8.69231C13.2 10.9805 11.2823 12.7692 9 12.7692C6.71773 12.7692 4.8 10.9805 4.8 8.69231Z" fill="#1BABEA"/>
</svg>
