<svg width="25" height="26" viewBox="0 0 25 26" fill="none" xmlns="http://www.w3.org/2000/svg">
<path fill-rule="evenodd" clip-rule="evenodd" d="M15.5858 1.49997C15.9609 1.1249 16.4696 0.914185 17 0.914185C17.5304 0.914185 18.0391 1.1249 18.4142 1.49997L17.7457 2.16851L18.4142 1.49997L24 7.08576C24.3751 7.46083 24.5858 7.96954 24.5858 8.49997C24.5858 9.0304 24.3751 9.53911 24 9.91418L21.1075 12.8067L21.9701 16.2574C22.0553 16.5982 21.9555 16.9587 21.7071 17.2071L16.7071 22.2071C16.3166 22.5976 15.6834 22.5976 15.2929 22.2071C14.9024 21.8166 14.9024 21.1834 15.2929 20.7929L19.8925 16.1932L19.4582 14.456L9 24.9142C8.81429 25.0999 8.59381 25.2472 8.35115 25.3477C8.33955 25.3525 8.3279 25.3572 8.31622 25.3618C8.29772 25.3694 8.27904 25.3764 8.26021 25.3828C8.04403 25.4603 7.81589 25.5 7.58579 25.5H2C1.46957 25.5 0.960861 25.2893 0.585787 24.9142C0.210714 24.5391 0 24.0304 0 23.5V17.9142C0 17.6838 0.0398008 17.4554 0.117409 17.239C0.123679 17.2207 0.130497 17.2025 0.137862 17.1845C0.142538 17.1726 0.147331 17.1607 0.152241 17.1488C0.25275 16.9062 0.400069 16.6857 0.585787 16.5L12.2923 4.79341C12.2925 4.79323 12.2927 4.79305 12.2929 4.79286C12.2931 4.79268 12.2933 4.7925 12.2934 4.79232L15.5858 1.49997ZM13 6.91418L2.41422 17.5L8 23.0858L18.5858 12.5L13 6.91418ZM20 11.0858L14.4142 5.49997L17 2.91418L22.5858 8.49997L20 11.0858ZM5.58579 23.5L2 19.9142V23.5H5.58579Z" fill="#0B3973"/>
</svg>
