<svg width="26" height="25" viewBox="0 0 26 25" fill="none" xmlns="http://www.w3.org/2000/svg">
<path fill-rule="evenodd" clip-rule="evenodd" d="M12.9999 2C9.18985 2 6.08333 5.1241 6.08333 9C6.08333 12.8759 9.18985 16 12.9999 16C16.81 16 19.9165 12.8759 19.9165 9C19.9165 5.1241 16.81 2 12.9999 2ZM17.5728 16.7283C20.177 15.1547 21.9165 12.2786 21.9165 9C21.9165 4.03935 17.9343 0 12.9999 0C8.06557 0 4.08333 4.03935 4.08333 9C4.08333 12.2786 5.82281 15.1547 8.42699 16.7283C7.43613 17.0519 6.47774 17.4812 5.56859 18.0114C3.30977 19.3288 1.4351 21.223 0.13185 23.5025C-0.142262 23.982 0.0242049 24.5929 0.503664 24.867C0.983123 25.1411 1.59401 24.9746 1.86813 24.4952C2.99814 22.5186 4.62223 20.8787 6.5762 19.739C8.53011 18.5995 10.7454 18 12.9999 18C15.2544 18 17.47 18.5996 19.4239 19.7392C21.3778 20.8788 23.0019 22.5188 24.1318 24.4954C24.4059 24.9749 25.0168 25.1413 25.4963 24.8672C25.9758 24.5931 26.1422 23.9822 25.8681 23.5028C24.5649 21.2232 22.6903 19.329 20.4315 18.0116C19.5223 17.4813 18.5638 17.052 17.5728 16.7283Z" fill="#C4C4C4"/>
</svg>
