<svg width="22" height="22" viewBox="0 0 22 22" fill="none" xmlns="http://www.w3.org/2000/svg">
<path fill-rule="evenodd" clip-rule="evenodd" d="M15.0098 2.04039C14.3785 1.96463 13.7352 1.99515 13.1071 2.13443C11.956 2.38967 10.9132 2.99742 10.1237 3.87311C9.33419 4.74879 8.83736 5.84883 8.70235 7.02011C8.56802 8.18542 8.79849 9.36356 9.36174 10.3922C9.59935 10.8044 9.51373 11.3324 9.14864 11.6477L2.41629 17.4629C2.14931 17.7418 1.99989 18.1134 2 18.5004C2.00011 18.8981 2.15814 19.2795 2.43935 19.5607C2.72055 19.8419 3.10191 19.9999 3.49959 20C3.88656 20.0001 4.25815 19.8507 4.53712 19.5837L10.3524 12.8513C10.6695 12.4842 11.2003 12.4005 11.6121 12.6406C12.6397 13.2021 13.8162 13.4318 14.9799 13.2977C16.1512 13.1626 17.2512 12.6658 18.1269 11.8763C19.0026 11.0868 19.6103 10.044 19.8656 8.89291C20.0048 8.26476 20.0354 7.62145 19.9596 6.99016L16.8073 10.1425C16.5709 10.3789 16.2319 10.4815 15.9041 10.4159L12.9578 9.82668C12.5619 9.74751 12.2525 9.43808 12.1733 9.04222L11.5841 6.09592C11.5185 5.76806 11.6211 5.42912 11.8575 5.1927L15.0098 2.04039ZM11.3651 14.7384C12.5741 15.2453 13.8975 15.4357 15.2089 15.2845C16.7934 15.1019 18.2815 14.4298 19.4661 13.3618C20.6507 12.2938 21.4729 10.883 21.8181 9.32586C22.1634 7.76872 22.0146 6.14267 21.3925 4.67405C21.289 4.42978 21.0927 4.23664 20.8468 4.13713C20.6008 4.03763 20.3255 4.03992 20.0812 4.1435L20.0808 4.14368C19.9625 4.19385 19.855 4.26634 19.7641 4.3572L15.7715 8.34982L14.0037 7.99627L13.6502 6.22848L17.6428 2.23585C17.7323 2.14639 17.8039 2.04076 17.854 1.92458L17.8542 1.92415C17.9596 1.6796 17.9631 1.40311 17.864 1.15596C17.7648 0.908805 17.5712 0.711414 17.326 0.607537C15.8573 -0.0146157 14.2313 -0.163413 12.6741 0.181859C11.117 0.52713 9.70624 1.34929 8.63824 2.5339C7.57025 3.7185 6.89815 5.20661 6.71551 6.79108C6.56434 8.10248 6.75469 9.42589 7.26161 10.6349L1.07756 15.9764C1.059 15.9925 1.04105 16.0092 1.02372 16.0265C0.36796 16.683 -0.000263907 17.5731 1.41911e-07 18.501C0.00026419 19.4289 0.368995 20.3187 1.02513 20.9749C1.68127 21.631 2.57111 21.9997 3.49902 22C4.42694 22.0003 5.31698 21.632 5.97349 20.9763C5.99084 20.959 6.00754 20.941 6.02356 20.9224L11.3651 14.7384Z" fill="#C4C4C4"/>
</svg>
